<?xml version="1.0" standalone="no"?>
<!DOCTYPE svg PUBLIC "-//W3C//DTD SVG 20010904//EN"
 "http://www.w3.org/TR/2001/REC-SVG-20010904/DTD/svg10.dtd">
<svg version="1.0" xmlns="http://www.w3.org/2000/svg"
 width="2560.000000pt" height="2560.000000pt" viewBox="0 0 2560.000000 2560.000000"
 preserveAspectRatio="xMidYMid meet">
<metadata>
Created by potrace 1.16, written by Peter Selinger 2001-2019
</metadata>
<g transform="translate(0.000000,2560.000000) scale(0.100000,-0.100000)"
fill="#000000" stroke="none">
<path d="M526 25577 c-7 -31 -65 -57 -125 -57 -41 0 -49 -3 -59 -25 -6 -14 -9
-32 -6 -40 6 -16 49 -21 58 -7 3 5 27 4 54 -1 45 -10 50 -9 75 17 25 25 29 26
43 12 18 -18 70 -21 79 -5 12 18 -5 79 -21 79 -8 0 -20 11 -26 25 -15 34 -63
35 -72 2z"/>
<path d="M1410 25590 c0 -5 -11 -12 -25 -16 -37 -9 -31 -29 24 -84 32 -32 52
-62 58 -86 8 -35 12 -38 46 -41 35 -2 38 1 44 28 3 16 15 36 27 44 19 14 18
15 -27 15 -46 0 -67 15 -54 37 9 14 97 3 97 -12 0 -28 39 -27 65 1 30 32 29
29 9 59 -12 18 -13 28 -4 44 11 21 9 21 -125 21 -81 0 -135 -4 -135 -10z"/>
<path d="M1797 25563 c10 -21 18 -40 20 -41 1 -2 15 4 31 14 16 9 36 14 44 11
17 -6 28 -50 28 -107 0 -35 12 -50 40 -50 5 0 8 25 8 57 -1 41 4 60 16 68 19
14 21 35 4 35 -6 0 -26 11 -44 25 -27 21 -44 25 -98 25 l-66 0 17 -37z"/>
<path d="M3851 25573 c-8 -16 -17 -36 -22 -46 -11 -21 3 -52 27 -61 23 -9 22
-10 45 40 15 31 26 43 36 40 8 -4 26 -6 39 -6 20 0 24 -5 24 -29 0 -33 -31
-62 -61 -56 -33 7 -35 -50 -2 -83 7 -7 13 -31 13 -53 0 -30 -4 -39 -17 -40
-79 -7 -108 -24 -122 -68 -6 -21 -11 -41 -11 -44 0 -3 30 -10 66 -16 67 -12
104 -28 104 -46 0 -5 12 -20 27 -32 14 -13 23 -26 20 -29 -8 -8 -97 35 -97 47
0 5 -6 9 -14 9 -8 0 -16 4 -18 9 -4 12 -110 23 -126 13 -7 -5 -17 -35 -21 -66
-11 -77 -20 -84 -64 -43 -36 33 -37 35 -37 110 0 70 2 77 20 77 16 0 20 7 20
30 0 39 23 50 108 50 64 0 70 2 65 19 -3 10 0 28 6 39 8 16 7 21 -4 26 -8 3
-15 14 -15 25 0 13 -9 21 -30 26 -16 4 -34 4 -40 0 -5 -3 -10 1 -10 11 0 14
-7 16 -39 11 -53 -7 -68 4 -53 38 17 36 15 45 -8 45 -11 0 -20 -6 -20 -14 0
-7 -9 -25 -21 -40 -17 -21 -18 -26 -5 -26 12 0 16 -10 16 -40 0 -22 -5 -40
-11 -40 -6 0 -28 18 -49 40 -41 43 -50 48 -50 26 0 -14 -21 -26 -45 -26 -18 0
-47 29 -40 40 10 15 -40 -3 -72 -26 -22 -17 -33 -34 -35 -56 -2 -24 -10 -36
-30 -46 -30 -14 -148 -40 -216 -48 -62 -6 -111 -29 -121 -56 -10 -28 -53 -53
-75 -45 -37 14 -60 -25 -37 -61 7 -11 16 -11 55 2 26 9 60 16 76 16 16 0 32 5
35 10 3 6 17 10 31 10 16 0 35 11 50 29 15 18 31 27 42 24 10 -2 26 5 36 16
24 26 38 26 61 1 21 -23 13 -50 -15 -50 -17 0 -20 -6 -20 -46 0 -38 -5 -52
-27 -73 -26 -25 -28 -33 -28 -105 0 -44 4 -81 10 -83 6 -1 25 6 43 17 29 18
32 24 30 65 -2 53 13 75 40 58 9 -6 16 -21 14 -33 -2 -18 1 -21 15 -14 42 18
92 16 119 -5 32 -25 60 -14 70 27 12 48 21 53 67 32 23 -10 51 -21 61 -25 26
-8 13 -18 -22 -17 -22 0 -39 -10 -68 -41 -32 -33 -35 -40 -17 -35 16 4 20 2
16 -8 -4 -10 5 -14 33 -15 22 0 53 -3 69 -6 17 -3 66 -6 110 -7 78 -1 80 -2
80 -26 0 -19 -7 -27 -30 -33 -16 -5 -44 -13 -61 -18 -17 -5 -62 -9 -100 -9
-58 0 -74 -4 -94 -22 l-23 -22 27 -23 c17 -14 40 -23 61 -23 64 0 230 33 256
51 14 10 38 21 55 25 79 19 115 62 75 90 -24 17 -25 33 -10 103 13 63 49 101
95 101 21 0 42 8 54 20 24 24 48 25 78 4 24 -16 42 -12 42 12 0 8 6 14 14 14
26 0 30 23 8 41 -12 9 -22 24 -22 32 0 7 -18 20 -40 27 -27 9 -40 19 -40 32 0
15 8 18 48 18 66 0 80 14 74 73 -3 37 -8 47 -22 47 -13 0 -19 10 -22 38 -3 20
-2 46 2 57 7 18 9 19 15 3 8 -21 61 -25 67 -5 2 6 2 42 0 80 l-4 67 -45 0 -46
0 7 -57 c5 -49 2 -62 -14 -82 l-20 -23 -20 23 c-10 13 -20 38 -20 54 -1 17 -4
24 -7 18 -5 -14 -53 -18 -53 -5 0 4 -10 12 -22 17 -13 6 -24 20 -26 33 -3 21
-8 22 -96 22 -91 0 -93 0 -105 -27z m-451 -395 c73 -25 94 -81 44 -115 -15
-10 -38 -30 -52 -45 -24 -25 -27 -26 -54 -12 -30 16 -35 33 -16 63 10 16 16
17 35 8 19 -9 26 -8 34 4 14 22 6 43 -24 57 -26 13 -34 31 -20 45 9 9 15 9 53
-5z"/>
<path d="M4710 25591 c0 -13 25 -37 60 -58 39 -22 38 -29 -5 -37 -45 -9 -50
-20 -34 -68 11 -36 11 -42 -3 -52 -11 -8 -14 -17 -8 -26 7 -11 17 -11 65 0
l58 14 39 -43 c22 -23 41 -41 42 -39 2 2 15 20 30 41 23 29 26 40 17 51 -8 9
-10 35 -7 67 3 42 1 56 -12 66 -16 11 -16 12 1 13 10 0 30 9 46 21 27 20 29
20 64 3 l37 -18 30 34 c16 18 30 35 30 37 0 2 -101 3 -225 3 -132 0 -225 -4
-225 -9z"/>
<path d="M6200 25560 c0 -22 5 -40 10 -40 6 0 10 -8 8 -17 -2 -14 5 -19 30
-21 26 -3 38 -11 54 -38 17 -29 25 -34 59 -34 35 0 39 -3 39 -25 0 -14 5 -25
10 -25 6 0 10 -7 10 -15 0 -25 -38 -17 -67 15 -22 26 -28 28 -35 15 -5 -8 -16
-15 -23 -15 -10 0 -15 -10 -15 -29 0 -19 -8 -35 -21 -45 -18 -12 -20 -20 -13
-43 10 -35 13 -66 8 -75 -9 -14 -64 14 -64 33 0 10 -5 39 -12 64 -11 41 -10
46 11 69 19 20 21 30 15 62 -4 22 -8 50 -8 63 -1 17 -11 31 -34 44 -35 21 -53
17 -33 -7 30 -36 -38 -50 -90 -19 -21 12 -32 14 -37 7 -9 -15 -130 -80 -163
-87 -14 -4 -42 -25 -63 -47 -21 -23 -46 -40 -58 -40 -13 0 -39 -18 -62 -44
-23 -24 -51 -46 -63 -50 -12 -4 -40 -24 -62 -46 -26 -25 -53 -41 -78 -46 -54
-10 -110 -40 -118 -64 -3 -11 -11 -20 -16 -20 -5 0 -9 -13 -9 -28 0 -55 -45
-71 -61 -22 -13 36 -35 38 -60 5 -11 -13 -34 -27 -52 -30 -32 -6 -83 -46 -103
-81 -7 -13 -24 -20 -50 -22 -87 -6 -107 -23 -42 -36 55 -11 79 -45 62 -90 -4
-11 -19 -16 -48 -17 -40 0 -41 0 -18 -16 12 -8 22 -23 22 -32 0 -17 18 -41 32
-41 4 0 18 11 31 24 25 25 37 29 70 27 14 -1 16 -7 11 -41 -4 -22 -3 -40 2
-40 5 0 23 16 39 36 25 29 39 37 77 41 37 4 50 1 68 -15 30 -28 86 -35 123
-16 45 24 77 4 77 -48 l0 -38 -50 0 c-36 0 -50 -4 -50 -14 0 -7 -7 -19 -15
-26 -8 -7 -15 -20 -15 -29 0 -9 -9 -22 -20 -29 -27 -16 -25 -49 3 -72 20 -17
24 -17 40 -3 9 9 17 22 17 30 0 7 12 18 26 24 15 5 42 26 60 45 l32 36 18 -29
c10 -15 26 -36 37 -47 13 -13 17 -26 12 -43 -19 -79 -19 -83 9 -83 22 0 26 4
26 28 0 16 6 37 14 47 11 16 19 17 47 9 31 -9 34 -13 31 -46 -3 -45 17 -65 48
-48 18 9 21 18 16 41 -4 24 1 35 29 64 19 19 35 42 35 51 0 13 6 15 28 9 46
-12 107 -11 105 2 -3 15 14 27 65 43 23 7 42 19 42 27 0 9 16 13 59 13 41 0
60 4 64 14 3 8 19 17 34 20 24 6 31 14 41 51 13 48 38 61 44 23 4 -30 64 -39
75 -12 3 10 23 34 43 54 34 34 41 37 88 34 28 -1 59 -5 70 -8 12 -4 26 0 36 9
24 25 19 35 -18 35 -49 0 -64 22 -43 65 20 43 50 46 79 9 17 -21 26 -24 52
-18 41 8 50 18 31 34 -8 7 -15 23 -15 36 0 21 5 24 35 24 38 0 116 27 127 44
5 7 8 7 8 -1 0 -7 9 -13 19 -13 11 0 23 -4 26 -10 10 -17 25 -11 25 10 0 11
-6 20 -14 20 -22 0 -28 17 -16 40 8 14 21 20 45 20 l34 0 -24 25 c-27 26 -32
62 -12 88 17 24 67 36 90 23 14 -9 20 -7 28 7 6 9 16 17 23 17 8 0 16 7 20 15
3 8 11 15 19 15 13 0 47 49 47 69 0 16 -41 13 -60 -4 -23 -20 -46 -10 -58 25
-11 30 -7 40 15 40 17 0 46 27 62 58 29 55 -45 71 -100 22 -19 -16 -42 -32
-51 -36 -28 -9 -23 -52 7 -66 14 -6 24 -14 22 -17 -1 -3 -9 -18 -17 -34 -26
-53 -90 -49 -90 6 0 63 -39 76 -64 22 -13 -26 -23 -35 -41 -35 -27 0 -31 15
-26 93 l3 38 -45 -6 c-54 -8 -80 4 -96 44 -9 22 -10 35 -2 50 10 17 7 23 -13
36 -25 17 -42 12 -97 -27 -13 -9 -24 -8 -52 5 -19 9 -43 17 -54 17 -10 1 -31
6 -47 13 -27 12 -28 14 -12 29 9 9 16 19 16 22 0 3 -45 6 -100 6 l-100 0 0
-40z m-100 -361 c7 -11 10 -21 8 -22 -74 -37 -80 -47 -42 -68 21 -11 28 -11
31 -1 3 6 9 12 14 12 12 0 37 -52 32 -67 -3 -7 0 -13 6 -13 6 0 11 -11 11 -24
0 -27 -21 -36 -85 -36 -56 0 -81 21 -101 85 -10 30 -21 55 -26 55 -22 0 -4 32
26 44 19 8 41 24 48 35 17 28 64 28 78 0z m230 -97 c14 -5 36 -22 49 -36 14
-14 35 -26 48 -26 20 0 23 -5 23 -36 0 -39 20 -63 53 -64 10 0 20 -7 23 -15 9
-24 -15 -45 -51 -45 -30 0 -36 6 -64 55 -17 30 -31 62 -31 70 0 9 -12 21 -27
28 -16 6 -34 17 -40 24 -7 6 -26 14 -43 18 -23 5 -30 12 -30 30 0 21 3 22 33
15 17 -4 43 -12 57 -18z"/>
<path d="M6719 25579 c-17 -14 -20 -22 -11 -25 6 -3 12 -12 12 -20 0 -8 4 -14
9 -14 17 0 61 -46 61 -63 0 -24 56 -50 91 -42 21 5 29 12 29 29 0 27 35 61 73
70 18 4 27 13 27 26 0 12 10 25 25 32 38 17 30 28 -19 28 -39 0 -45 -3 -48
-22 -2 -19 -10 -24 -40 -26 -42 -4 -78 12 -78 33 0 25 -102 20 -131 -6z"/>
<path d="M7400 25540 c-14 -4 -42 -5 -62 -2 -33 3 -39 0 -49 -22 -13 -27 -22
-30 -76 -27 -18 2 -33 -1 -33 -6 1 -14 27 -43 38 -43 23 0 42 -43 36 -82 -5
-29 -3 -39 10 -44 9 -3 16 -11 16 -16 0 -16 44 -47 67 -48 29 0 38 16 34 62
-4 65 14 103 56 116 32 10 40 9 58 -7 34 -31 66 -44 78 -32 14 14 -31 64 -51
56 -7 -2 -11 -1 -7 4 3 5 -8 19 -25 31 -16 12 -33 32 -36 44 -6 24 -14 26 -54
16z"/>
<path d="M7812 25092 c-21 -21 -30 -24 -72 -19 -44 5 -52 3 -80 -23 -35 -33
-32 -50 9 -50 34 0 60 -25 43 -42 -5 -5 -30 -13 -55 -15 -40 -5 -47 -3 -62 20
-11 17 -22 24 -33 20 -36 -13 -40 -22 -30 -63 10 -39 11 -40 57 -40 30 0 55
-7 71 -20 33 -26 42 -25 68 5 12 13 40 34 63 45 41 21 43 21 95 5 61 -19 67
-30 62 -115 -2 -46 -6 -55 -23 -58 -11 -2 -37 -17 -58 -34 -43 -34 -59 -28
-72 23 -6 24 -2 30 47 55 45 25 53 34 56 62 4 37 -13 42 -44 14 -23 -21 -77
-42 -110 -42 -13 0 -33 -9 -44 -20 -16 -16 -25 -18 -45 -10 -15 6 -39 10 -55
10 -16 0 -32 5 -35 10 -3 6 -15 10 -26 10 -10 0 -19 5 -19 10 0 6 -8 10 -17
10 -17 1 -17 1 0 14 21 16 22 26 2 26 -8 0 -15 5 -15 10 0 6 -11 10 -25 10
-14 0 -25 -4 -25 -10 0 -5 -6 -10 -13 -10 -27 0 -64 -25 -97 -67 -32 -40 -38
-43 -82 -43 -53 0 -56 -6 -32 -52 15 -30 15 -32 -2 -45 -18 -14 -65 -13 -124
1 -19 5 -41 -4 -95 -39 -40 -26 -81 -45 -97 -45 -18 0 -36 -10 -51 -26 -12
-14 -35 -33 -51 -41 -15 -8 -40 -27 -55 -41 -27 -29 -157 -96 -203 -106 -37
-8 -38 -47 -3 -66 48 -26 27 -126 -26 -118 -18 2 -24 9 -24 30 -1 15 -4 30 -7
33 -9 9 -48 -18 -48 -32 0 -14 -1 -14 -45 -17 -24 -1 -31 4 -33 20 -2 16 -12
24 -37 28 -28 6 -43 0 -89 -29 -30 -19 -61 -35 -69 -35 -24 0 -57 -36 -63 -69
-5 -25 -3 -31 10 -31 9 0 21 -12 26 -27 6 -16 15 -36 20 -45 6 -10 10 -25 10
-33 0 -19 1 -19 50 1 29 12 55 15 90 10 42 -6 52 -3 68 14 17 18 30 21 93 20
170 -4 346 5 362 19 28 23 21 64 -18 100 -25 22 -35 40 -35 61 0 17 5 30 13
31 6 0 -5 7 -25 16 -43 17 -45 26 -18 71 23 37 49 41 75 11 16 -17 17 -25 8
-49 -16 -42 1 -52 78 -46 35 2 56 2 47 -1 -22 -6 -24 -23 -3 -23 8 0 15 -4 15
-10 0 -5 -6 -7 -14 -4 -18 7 -48 -34 -35 -50 5 -6 18 -22 28 -36 l19 -25 6 28
c3 15 8 38 11 52 6 30 30 33 47 5 18 -28 35 -25 41 9 9 41 32 45 88 14 42 -24
49 -32 49 -59 0 -20 6 -34 16 -38 20 -8 64 19 64 38 0 8 8 16 18 19 15 3 15 5
-3 11 -39 14 -50 23 -53 44 -3 18 1 22 24 20 15 -2 33 -12 41 -25 17 -26 54
-30 116 -12 50 14 49 37 -3 41 -32 2 -38 6 -30 18 7 11 14 12 27 4 22 -13 50
-7 57 12 3 8 2 14 -3 14 -4 0 -18 8 -29 18 -18 16 -20 24 -12 48 5 16 12 41
15 55 11 56 33 69 123 71 92 2 124 18 78 39 -30 14 -31 20 -12 58 19 35 57 61
92 61 30 0 30 -8 -3 -92 -13 -36 -15 -50 -6 -59 17 -17 43 -3 43 21 0 17 5 21
28 18 25 -3 27 -6 24 -43 -2 -43 24 -105 45 -105 7 0 19 16 27 35 8 19 26 39
39 44 37 14 57 40 57 72 0 24 4 29 26 29 14 0 35 -5 46 -11 11 -6 23 -7 27 -3
3 5 24 9 46 9 l39 0 -3 54 -3 53 34 -4 c18 -3 41 -8 50 -12 22 -10 48 38 30
56 -8 8 -7 16 1 30 10 16 7 23 -20 46 -17 15 -45 35 -62 44 -27 15 -29 20 -26
57 l4 41 -45 0 c-24 0 -44 -4 -44 -9 0 -5 -16 -12 -36 -15 -44 -9 -76 10 -94
53 -11 27 -10 34 3 49 18 20 20 68 5 100 -11 20 -18 23 -67 20 -44 -2 -61 -7
-79 -26z m-354 -311 c-2 -11 14 -24 49 -42 28 -14 57 -30 65 -36 12 -11 56 -6
116 12 25 8 27 0 12 -39 -9 -24 -15 -26 -64 -26 -37 0 -58 5 -67 16 -9 11 -25
15 -53 12 -37 -4 -63 4 -136 41 -8 5 -16 17 -18 29 -2 16 6 26 35 40 41 22 65
19 61 -7z m-95 -141 c5 -4 -2 -18 -16 -31 -13 -13 -27 -36 -30 -50 -7 -29 -47
-79 -64 -79 -6 0 -13 -4 -15 -9 -1 -4 -13 -11 -25 -15 -29 -9 -73 35 -73 73 0
24 6 31 41 45 37 15 40 19 37 49 -3 30 -1 32 32 37 35 6 98 -5 113 -20z"/>
<path d="M2705 25093 c-11 -3 -24 -11 -28 -19 -4 -8 -18 -14 -31 -14 -12 0
-33 -10 -46 -22 -29 -27 -80 -48 -133 -55 -40 -5 -58 -26 -39 -45 8 -8 19 -7
41 2 24 10 40 10 81 -1 48 -12 51 -12 65 9 10 13 22 19 31 15 13 -5 15 -1 10
15 -11 33 27 64 72 60 25 -2 37 1 36 10 -1 6 -2 21 -2 32 -2 20 -15 23 -57 13z"/>
<path d="M4177 25023 c-58 -31 -62 -108 -7 -120 17 -3 33 -10 36 -14 9 -15 64
-10 81 7 10 10 29 14 52 12 l36 -3 -3 50 c-2 32 -10 55 -21 65 -24 21 -137 23
-174 3z"/>
<path d="M2413 24853 c-7 -2 -13 -19 -13 -36 0 -27 6 -35 40 -50 26 -12 40
-25 40 -37 0 -21 38 -52 52 -44 18 11 64 -17 75 -46 7 -19 18 -30 30 -30 28 0
94 26 86 33 -3 4 12 7 35 7 26 0 41 -4 40 -11 -6 -23 18 -18 50 10 44 40 43
66 0 56 -18 -4 -79 -9 -135 -12 -95 -4 -102 -3 -113 16 -6 12 -21 21 -34 21
-13 0 -31 9 -41 20 -10 11 -26 20 -36 20 -25 0 -33 18 -18 37 11 13 10 18 -10
34 -24 20 -28 21 -48 12z"/>
<path d="M4643 24462 c0 -33 -5 -58 -12 -60 -17 -6 -13 -26 9 -40 32 -20 25
-56 -17 -90 -32 -25 -35 -32 -24 -45 7 -9 37 -21 67 -27 35 -7 54 -16 54 -26
0 -8 5 -14 10 -14 7 0 7 6 1 18 -12 22 19 62 48 62 34 0 24 24 -18 44 -38 18
-40 21 -37 60 1 22 8 51 14 62 19 36 62 42 62 9 0 -7 6 -15 12 -17 7 -3 11
-18 10 -37 -2 -29 -1 -31 17 -21 27 14 41 13 41 -5 0 -9 9 -15 23 -15 31 -1
59 -24 45 -38 -15 -15 -2 -42 21 -42 11 0 31 15 45 33 31 41 32 47 6 47 -11 0
-20 6 -20 13 0 22 16 37 36 36 44 -4 54 1 54 29 0 60 -12 102 -29 102 -17 0
-51 -57 -51 -83 0 -7 -17 -19 -37 -26 -33 -12 -38 -12 -50 5 -7 10 -13 21 -13
26 0 4 -6 8 -14 8 -8 0 -16 5 -18 12 -3 7 -24 13 -51 13 -26 1 -53 7 -59 13
-7 7 -29 12 -50 12 -24 0 -41 5 -44 14 -3 8 -11 17 -18 19 -10 4 -13 -9 -13
-51z"/>
<path d="M4373 24466 c-29 -24 -53 -24 -53 0 0 8 -4 14 -9 14 -5 0 -15 -26
-21 -57 -14 -73 -26 -103 -42 -103 -25 0 -35 -35 -33 -109 3 -76 13 -95 44
-83 36 15 62 41 70 68 6 23 15 30 42 35 19 3 51 17 71 30 l37 24 0 103 0 102
-39 0 c-26 0 -48 -8 -67 -24z"/>
<path d="M4158 24438 c-5 -13 -57 -15 -135 -3 -76 11 -84 5 -68 -42 l13 -38
78 0 c67 0 79 -3 82 -17 2 -10 -2 -18 -8 -18 -14 0 -44 -29 -37 -36 3 -3 23 7
46 21 39 26 40 28 40 86 -1 58 -3 71 -11 47z"/>
<path d="M3730 24401 c-38 -12 -85 -38 -99 -55 -20 -24 3 -47 43 -42 65 9 112
18 126 23 8 4 21 5 29 4 17 -3 71 19 71 29 0 12 -27 20 -65 20 -53 0 -51 18 2
23 40 3 37 4 -17 4 -36 1 -76 -2 -90 -6z"/>
<path d="M743 23367 c-13 -5 -23 -13 -23 -17 0 -4 -22 -17 -49 -29 -53 -22
-67 -42 -51 -72 17 -31 53 -22 143 39 27 17 58 32 68 32 10 0 19 4 19 8 0 15
-24 32 -45 32 -12 0 -25 4 -30 9 -6 5 -19 4 -32 -2z"/>
<path d="M383 23042 c-31 -10 -73 -49 -73 -68 0 -9 -8 -29 -17 -45 -16 -27
-16 -30 3 -56 12 -16 29 -30 38 -31 24 -5 66 36 66 63 0 12 8 30 18 41 28 29
31 46 15 77 -14 28 -15 29 -50 19z"/>
<path d="M468 22818 c-10 -12 -18 -34 -18 -49 0 -15 -4 -39 -10 -54 -9 -23 -5
-31 28 -66 26 -27 51 -42 75 -46 43 -7 94 12 102 37 8 25 -52 129 -80 140 -12
4 -29 20 -38 34 -21 32 -36 33 -59 4z"/>
<path d="M828 22657 l-27 -13 23 -28 c22 -28 25 -29 82 -22 57 6 61 5 87 -22
25 -26 37 -30 110 -36 45 -3 132 -2 192 3 162 12 244 -11 267 -76 9 -24 24
-37 67 -56 130 -58 251 -81 251 -48 0 5 -18 31 -40 57 -22 27 -40 54 -40 60 0
11 -135 134 -148 135 -4 0 -28 1 -54 2 -31 2 -58 11 -79 26 -32 24 -33 24 -78
7 -66 -25 -140 -46 -186 -52 -34 -5 -46 -2 -70 18 -17 14 -40 31 -53 37 -34
18 -270 24 -304 8z"/>
<path d="M4813 22570 c-19 -32 -57 -41 -67 -15 -9 25 -32 17 -70 -25 -35 -39
-36 -41 -22 -69 17 -31 47 -41 127 -41 58 0 99 14 99 35 0 8 4 15 9 15 6 0 6
12 0 32 -5 18 -9 48 -9 65 0 28 -4 33 -24 33 -17 0 -31 -10 -43 -30z"/>
<path d="M2262 22404 c-11 -38 -23 -85 -27 -105 -6 -40 -42 -89 -65 -89 -8 0
-23 -7 -32 -14 -21 -16 -68 -83 -68 -97 0 -9 46 -57 82 -85 7 -5 20 -21 28
-33 12 -18 29 -26 72 -31 35 -5 65 -16 79 -28 14 -14 34 -21 58 -20 21 0 52
-7 70 -17 18 -9 37 -13 42 -8 4 4 11 34 15 65 7 63 8 62 -57 72 -39 7 -71 31
-110 86 -40 55 -49 94 -50 219 -1 155 -9 175 -37 85z"/>
<path d="M3994 22259 c-30 -16 -56 -21 -111 -20 -50 0 -75 -4 -80 -13 -14 -23
-50 -36 -98 -36 -48 0 -105 -25 -105 -45 0 -7 -11 -22 -25 -35 -14 -13 -25
-29 -25 -36 0 -25 -40 -36 -105 -29 -61 6 -62 6 -99 -29 -32 -32 -42 -36 -89
-36 -62 0 -77 -8 -76 -41 0 -13 0 -39 1 -58 1 -28 -7 -41 -39 -70 -44 -41 -57
-72 -39 -97 11 -14 16 -15 38 -3 14 8 41 34 60 59 45 60 71 63 93 13 21 -48
63 -73 121 -73 34 0 46 4 50 18 12 38 54 115 54 99 0 -19 27 -67 45 -79 21
-15 65 -7 118 22 30 17 61 30 69 30 7 0 31 16 53 35 24 20 56 37 80 41 27 4
50 18 72 40 17 19 38 34 47 34 22 0 28 16 11 30 -17 14 -20 87 -5 139 12 43
54 88 99 107 40 17 71 18 71 3 0 -6 10 -9 23 -7 14 2 22 10 22 23 0 17 -7 20
-50 21 -27 1 -71 4 -96 8 -35 4 -55 1 -85 -15z"/>
<path d="M2496 21795 c-15 -23 -15 -28 -1 -55 13 -25 22 -30 51 -30 19 0 51
-7 72 -16 68 -28 152 -20 152 16 0 9 -193 96 -227 103 -26 5 -34 2 -47 -18z"/>
<path d="M4080 21638 c-11 -18 -20 -37 -20 -42 0 -4 -11 -17 -25 -28 -14 -11
-25 -24 -25 -29 0 -5 -18 -32 -40 -61 -22 -29 -40 -61 -40 -72 0 -20 -4 -21
120 13 l75 20 54 -24 c31 -15 72 -25 97 -25 24 0 44 -4 44 -9 0 -4 28 -11 63
-15 42 -4 66 -12 74 -24 7 -9 17 -23 23 -29 12 -14 60 -16 100 -4 31 9 63 -2
102 -34 36 -30 64 -32 71 -5 3 11 0 20 -6 20 -21 0 -77 76 -104 140 -40 99
-45 101 -93 52 -22 -23 -44 -42 -49 -42 -5 0 -25 7 -46 16 -33 14 -41 14 -75
0 -36 -14 -39 -14 -63 7 -13 12 -30 37 -38 55 -8 17 -17 32 -21 32 -4 0 -24
17 -45 38 -21 21 -55 48 -75 61 l-37 22 -21 -33z"/>
<path d="M710 20612 c0 -8 -8 -21 -18 -30 -10 -10 -27 -37 -37 -62 -9 -25 -33
-81 -52 -124 -19 -43 -37 -95 -40 -115 -7 -49 -32 -97 -60 -112 -13 -7 -23
-18 -23 -25 0 -6 -9 -14 -21 -17 -18 -5 -20 -10 -14 -50 8 -49 -3 -64 -32 -48
-17 8 -18 2 -20 -82 0 -51 -2 -126 -3 -167 -1 -41 -2 -84 -1 -95 2 -51 -17
-286 -23 -292 -10 -11 -40 -10 -47 1 -4 5 -4 35 -2 67 5 49 3 59 -10 59 -8 0
-18 6 -21 13 -5 10 -7 10 -12 0 -3 -7 -13 -13 -22 -13 -14 0 -17 -9 -15 -46 0
-25 6 -51 12 -57 6 -6 11 -34 11 -62 0 -27 3 -67 6 -87 6 -32 11 -38 30 -38
17 0 24 -6 24 -20 0 -11 7 -20 15 -20 9 0 23 -16 32 -35 9 -19 20 -35 24 -35
4 0 7 -41 7 -90 -1 -66 3 -95 14 -108 30 -35 30 -42 0 -42 -25 0 -32 7 -60 68
-18 37 -32 73 -32 80 0 6 -4 12 -9 12 -12 0 -71 59 -71 71 0 5 -18 9 -40 9
l-40 0 0 55 c0 52 1 55 25 55 24 0 25 3 25 54 0 74 -10 117 -29 123 -64 22
-67 126 -5 180 18 15 26 33 28 65 2 23 7 51 11 60 7 18 -27 56 -136 155 -38
35 -40 35 -59 18 -25 -23 -27 -81 -3 -107 16 -18 16 -22 0 -66 -16 -44 -17
-196 -17 -2079 0 -1569 3 -2032 12 -2035 9 -3 9 -11 0 -34 -18 -42 -12 -1320
5 -1351 10 -17 10 -36 2 -85 -19 -108 -21 -218 -6 -278 9 -36 12 -85 9 -141
-4 -72 -1 -96 18 -148 13 -34 27 -64 31 -67 5 -3 9 -20 9 -38 0 -17 5 -37 10
-42 14 -14 39 -113 46 -182 6 -58 15 -91 41 -151 14 -32 14 -35 -14 -75 -20
-28 -37 -42 -56 -44 -31 -4 -30 -9 -27 121 1 70 -2 93 -16 115 -14 20 -20 55
-25 137 -3 63 -13 127 -22 150 -15 37 -16 -146 -17 -2317 l0 -2356 21 5 c20 6
21 3 15 -23 -4 -16 -14 -34 -22 -40 -12 -10 -14 -275 -14 -1983 0 -1969 0
-1971 20 -1971 11 0 28 -4 38 -9 51 -26 94 -41 103 -35 5 3 26 -4 45 -15 22
-13 53 -21 80 -21 27 0 52 -6 60 -15 9 -8 27 -15 42 -15 15 -1 38 -7 52 -15
14 -8 46 -14 73 -15 26 0 47 -4 47 -10 0 -5 18 -10 40 -10 29 0 40 -4 40 -15
0 -13 -20 -15 -123 -15 -123 0 -151 7 -140 36 3 10 -5 16 -26 20 -17 4 -31 11
-31 17 0 13 -107 2 -126 -14 -9 -7 -14 -30 -14 -60 0 -48 1 -49 30 -49 28 0
30 -2 30 -39 0 -39 -1 -40 -37 -44 -21 -2 -13 -3 17 -1 47 3 58 0 77 -20 13
-13 23 -31 23 -40 0 -12 10 -16 40 -16 26 0 40 -4 40 -13 0 -20 66 -47 115
-47 25 0 45 -4 45 -10 0 -5 34 -9 77 -8 49 0 79 -4 81 -11 2 -6 21 -11 43 -11
21 0 39 -4 39 -9 0 -5 72 -12 160 -16 126 -6 160 -10 160 -21 0 -8 9 -14 20
-14 11 0 23 -6 26 -14 3 -7 21 -22 40 -32 19 -10 34 -22 34 -25 0 -4 25 -7 55
-8 52 0 59 -3 95 -41 42 -44 50 -48 50 -25 0 12 12 15 53 14 84 -2 101 -10
105 -49 2 -19 8 -41 14 -47 7 -9 7 -13 -1 -13 -6 0 -11 -11 -11 -25 0 -25 1
-25 80 -25 64 0 80 -3 80 -15 0 -12 16 -15 80 -15 64 0 80 -3 80 -15 0 -12 16
-15 80 -15 79 0 80 0 80 -25 0 -14 6 -25 13 -25 8 0 22 -18 32 -40 l18 -40 62
0 c36 0 75 6 91 15 16 8 46 15 66 15 l37 0 3 47 3 48 20 -22 c11 -13 27 -23
37 -23 14 0 18 -8 18 -40 l0 -40 175 0 175 0 0 -39 c0 -29 -5 -41 -17 -44 -10
-3 -2 -5 17 -6 55 -2 125 -26 128 -45 3 -11 14 -16 43 -16 l39 0 0 -45 0 -45
40 0 c29 0 40 -4 40 -15 0 -13 24 -15 160 -15 100 0 160 -4 160 -10 0 -5 18
-10 40 -10 l40 0 0 -55 0 -55 40 0 c28 0 40 4 40 14 0 21 168 27 188 6 10 -9
11 -15 3 -18 -33 -11 57 -82 105 -82 23 0 24 -3 24 -55 l0 -55 -40 0 c-22 0
-40 -4 -40 -10 0 -5 -18 -10 -40 -10 l-40 0 0 -55 0 -55 40 0 c29 0 40 -4 40
-15 0 -11 11 -15 40 -15 29 0 40 4 40 15 0 12 13 15 55 15 l55 0 0 -48 c0 -63
-23 -92 -74 -92 -20 0 -36 5 -36 10 0 6 -33 10 -78 10 -66 0 -79 3 -90 20 -7
12 -8 20 -2 20 5 0 10 7 10 15 0 12 -16 15 -85 15 -81 0 -155 20 -155 42 0 4
-54 8 -120 8 -113 0 -120 1 -120 20 0 18 -7 20 -59 20 -102 0 -181 -12 -181
-26 0 -8 4 -14 10 -14 5 0 25 -16 44 -36 l35 -36 75 7 c49 5 76 4 76 -3 0 -5
35 -13 77 -17 80 -7 163 -39 163 -62 0 -10 20 -13 75 -13 72 0 77 -1 108 -33
18 -18 39 -43 47 -55 10 -16 25 -22 51 -22 21 0 44 -7 51 -15 40 -44 40 -45
14 -55 -38 -14 -112 3 -134 31 -15 18 -34 24 -88 30 -38 4 -76 6 -85 3 -13 -3
-39 -43 -39 -58 0 -1 18 -11 40 -22 22 -10 40 -22 40 -26 0 -3 19 -9 41 -13
23 -4 56 -16 74 -26 20 -12 68 -24 120 -30 48 -5 95 -14 105 -19 10 -6 28 -10
39 -10 12 0 21 -4 21 -8 0 -5 16 -16 35 -25 19 -9 35 -23 35 -32 0 -8 3 -14 8
-14 4 1 24 1 45 0 26 -1 37 -6 37 -16 0 -11 11 -15 40 -15 29 0 40 4 40 15 0
19 76 21 82 3 3 -9 6 -9 12 0 4 7 2 12 -3 12 -6 0 -11 20 -11 46 l0 47 145 -7
145 -8 0 46 0 46 55 0 c43 0 55 -3 55 -15 0 -25 39 -32 143 -27 l97 4 0 29 c0
26 -3 28 -42 32 -37 3 -35 4 15 5 58 2 72 -9 46 -35 -8 -8 -3 -15 19 -27 39
-20 42 -20 42 4 0 17 7 20 43 22 54 3 109 0 115 -6 2 -3 -14 -23 -38 -46 l-42
-40 34 -32 c26 -26 42 -32 78 -33 216 -4 210 -3 210 -30 0 -25 1 -25 80 -25
79 0 80 0 80 -25 0 -22 4 -25 40 -25 36 0 40 3 40 25 0 23 4 25 40 25 39 0 40
1 40 35 0 36 13 47 24 19 12 -32 7 -84 -9 -84 -9 0 -15 -9 -15 -24 0 -23 -4
-24 -80 -31 -76 -7 -80 -8 -80 -31 0 -21 -4 -24 -40 -24 -38 0 -40 1 -40 31
l0 31 -77 -7 c-43 -4 -79 -11 -81 -16 -2 -5 -24 -9 -49 -9 -39 0 -49 5 -83 40
-21 22 -45 40 -54 40 -8 0 -19 6 -23 13 -4 7 -31 24 -58 37 -43 21 -60 24
-104 18 -35 -4 -64 -2 -85 7 -38 16 -110 21 -153 10 -26 -6 -33 -13 -33 -31 0
-19 7 -24 37 -30 26 -5 51 -22 84 -56 40 -40 54 -48 86 -49 35 0 36 -1 15 -11
-36 -18 -21 -31 49 -45 35 -7 79 -16 97 -19 17 -4 32 -10 32 -14 0 -4 19 -15
43 -24 23 -10 54 -23 68 -30 16 -8 46 -11 78 -8 44 4 51 2 51 -13 0 -13 4 -15
18 -9 28 13 142 17 142 5 0 -6 18 -14 40 -17 22 -4 40 -10 40 -14 0 -12 91
-31 141 -29 54 2 114 -8 155 -27 18 -8 60 -21 95 -29 35 -9 72 -20 81 -25 25
-14 142 -12 156 2 9 9 12 9 12 0 0 -7 10 -12 23 -12 25 -1 57 -22 57 -37 0
-16 -49 -22 -193 -27 l-128 -4 -34 34 c-20 19 -44 34 -58 34 -13 0 -28 5 -34
11 -12 12 -97 24 -282 38 -62 5 -118 14 -124 20 -6 6 -21 11 -34 11 -27 0 -73
20 -73 32 0 4 -18 8 -40 8 -39 0 -40 -1 -40 -34 0 -31 4 -35 33 -42 17 -3 43
-15 56 -25 13 -11 34 -19 47 -19 14 0 24 -6 24 -14 0 -17 59 -32 163 -41 42
-4 77 -11 77 -16 0 -5 9 -9 20 -9 11 0 30 -10 41 -21 19 -19 29 -21 82 -15 33
3 86 6 118 6 46 0 59 3 59 15 0 11 11 15 35 15 28 0 44 -8 73 -38 l37 -37 -65
-5 -65 -5 37 -38 c29 -29 45 -37 73 -37 19 0 35 -4 35 -9 0 -4 35 -11 77 -14
54 -4 79 -10 85 -21 5 -9 22 -16 38 -16 36 0 61 -10 55 -21 -6 -8 48 -41 62
-37 16 4 99 -14 118 -26 11 -7 42 -13 69 -14 27 -1 52 -6 55 -10 10 -14 195
-32 260 -26 52 6 61 5 61 -10 0 -12 10 -16 40 -16 22 0 40 -4 40 -10 0 -5 18
-10 40 -10 22 0 40 -4 40 -10 0 -5 18 -15 41 -21 31 -10 63 -10 142 -1 124 15
217 15 217 2 0 -5 18 -10 39 -10 22 0 41 -4 43 -9 3 -11 73 -13 171 -5 57 5
67 3 67 -10 0 -9 7 -16 15 -16 11 0 15 11 15 38 0 53 29 82 81 82 26 0 47 -7
61 -20 19 -17 19 -20 5 -20 -13 0 -17 -9 -17 -40 l0 -40 79 0 c75 0 80 1 83
23 l3 22 20 -22 c11 -13 27 -23 37 -23 10 0 18 -7 18 -16 0 -22 41 -64 63 -64
9 0 17 -7 17 -15 0 -11 -11 -15 -40 -15 -22 0 -40 -4 -40 -10 0 -5 -18 -10
-40 -10 -34 0 -40 -3 -40 -20 0 -33 64 -90 100 -90 35 0 75 -22 108 -59 18
-21 24 -23 31 -12 15 24 31 1 31 -45 0 -40 2 -44 25 -44 14 0 25 5 25 12 0 9
3 9 12 0 7 -7 25 -12 40 -12 21 0 28 -5 28 -19 0 -16 11 -19 69 -25 38 -4 79
-4 92 -1 15 3 40 -2 64 -15 21 -11 51 -20 66 -20 21 0 28 -6 31 -22 4 -29 44
-39 121 -27 98 14 117 12 117 -11 0 -21 17 -24 116 -20 25 1 54 -6 75 -18 23
-13 63 -22 122 -27 65 -5 87 -10 87 -21 0 -9 12 -14 35 -14 20 0 50 -7 68 -16
21 -11 75 -20 162 -25 155 -11 175 -15 175 -35 0 -8 8 -29 17 -47 13 -25 18
-28 21 -15 4 23 10 22 49 -1 21 -13 33 -16 35 -9 3 7 10 8 17 4 10 -7 11 -10
1 -16 -9 -6 -2 -13 21 -25 19 -10 40 -26 46 -36 9 -11 31 -19 65 -22 180 -17
248 -51 248 -122 0 -30 3 -35 23 -35 13 0 29 -6 35 -12 10 -10 15 -10 22 1 7
12 12 12 38 0 17 -8 49 -13 76 -11 l46 4 0 49 0 49 40 0 40 0 0 -40 c0 -34 -3
-40 -21 -40 -18 0 -19 -2 -9 -15 7 -8 21 -15 32 -15 27 0 78 -28 78 -43 0 -7
41 -22 98 -37 75 -19 120 -24 200 -23 81 1 102 -2 102 -13 0 -8 11 -14 28 -15
41 -1 132 -33 156 -56 17 -16 46 -22 146 -32 154 -16 271 -17 298 -2 26 14 92
14 92 1 0 -5 22 -10 48 -10 38 0 53 5 71 24 30 32 159 63 298 70 55 3 143 26
143 37 0 4 17 10 37 14 20 4 46 13 57 21 11 8 33 14 49 14 15 0 40 6 55 13 15
8 63 22 107 32 66 15 86 25 119 57 40 38 87 58 139 58 15 0 30 7 33 15 3 8 14
17 25 20 10 4 19 12 19 20 0 18 71 50 201 91 33 10 55 25 75 52 34 45 61 70
97 88 15 8 27 19 27 24 0 6 10 10 23 10 13 0 33 9 45 20 12 11 25 20 29 20 9
1 63 47 63 54 0 8 61 66 71 66 5 0 9 4 9 8 0 4 15 16 33 26 32 19 87 71 87 84
0 18 51 62 106 91 33 17 86 56 118 86 32 30 62 55 67 55 6 0 22 12 36 27 17
19 27 24 30 15 5 -14 82 36 83 53 0 6 14 19 30 28 28 17 32 25 34 81 1 13 12
23 33 28 17 5 41 19 51 33 22 28 34 33 26 10 -4 -9 0 -15 10 -15 9 0 16 5 16
11 0 22 44 99 56 99 7 0 17 6 21 13 4 7 21 17 37 22 16 6 34 19 40 30 33 62
60 93 91 105 19 8 35 16 35 20 0 3 17 12 38 19 38 14 78 52 88 85 7 23 62 75
121 117 24 16 47 39 53 49 6 11 18 20 28 20 10 0 25 17 36 40 19 40 19 40 78
40 42 0 60 4 64 15 7 17 89 65 113 65 32 0 123 54 137 82 8 15 21 28 30 28 8
0 32 17 54 38 23 24 56 44 83 51 41 12 97 52 97 70 0 11 47 31 75 31 13 0 27
5 30 10 3 6 26 10 50 10 39 0 49 5 82 40 21 22 42 40 46 40 8 0 24 12 62 47
17 16 25 38 30 78 9 66 25 80 100 90 88 11 135 26 135 44 0 21 19 41 39 41 8
0 29 11 47 25 22 17 54 28 95 34 38 5 67 14 74 25 7 9 17 16 24 16 6 0 11 4
11 9 0 5 23 11 50 15 67 9 80 15 80 37 0 10 6 22 14 26 7 4 30 32 50 60 21 29
46 53 55 53 9 0 27 9 39 20 12 11 28 20 35 20 8 0 17 13 20 29 7 33 21 47 93
99 24 17 30 27 27 46 -5 23 -1 27 42 38 26 7 59 23 72 36 32 29 65 42 91 35
13 -3 25 3 36 18 9 13 16 17 16 10 0 -9 4 -10 13 -4 6 6 40 13 74 16 38 3 69
11 78 21 9 9 20 16 25 16 5 0 12 9 15 20 7 22 30 27 39 8 5 -11 7 -11 12 0 3
6 12 12 20 12 8 0 14 9 14 19 0 20 59 61 87 61 22 0 53 39 53 66 0 31 41 60
96 69 42 6 105 33 129 56 5 5 17 9 27 9 11 0 21 13 29 39 9 31 20 42 55 60 25
11 61 21 81 21 39 0 137 50 147 76 8 20 -1 34 -20 34 -8 0 -14 10 -14 26 0 19
4 25 15 20 20 -7 104 53 130 94 11 17 36 41 55 52 19 12 37 25 40 28 3 3 21
12 40 20 44 17 160 97 167 116 3 8 11 14 18 14 7 0 15 3 17 8 4 10 76 42 95
42 21 0 179 78 194 96 6 8 18 14 25 14 8 0 14 6 14 13 0 7 26 38 58 68 31 30
66 67 77 81 14 19 33 29 63 34 25 4 55 17 70 31 46 43 131 93 158 93 27 0 149
54 159 70 3 6 12 10 20 10 20 0 105 53 105 65 0 6 8 15 19 20 35 19 142 90
207 138 36 27 79 55 97 63 18 8 39 18 47 23 8 5 29 15 45 22 17 7 37 19 46 27
9 7 48 28 85 46 38 18 75 40 82 49 7 9 28 18 45 22 18 3 50 13 72 22 22 8 58
22 80 30 22 9 58 24 80 33 22 10 56 23 76 30 20 6 44 18 55 28 20 18 76 56 84
57 3 1 21 9 40 20 19 11 37 19 40 20 36 5 139 115 171 183 15 32 56 62 84 62
7 0 28 14 46 31 19 18 62 51 96 75 70 47 118 98 108 114 -10 16 -56 12 -101
-9 -23 -10 -57 -22 -75 -25 -37 -8 -48 -12 -129 -49 -30 -14 -78 -30 -106 -36
-29 -6 -67 -19 -85 -30 -19 -11 -60 -26 -91 -34 -39 -10 -74 -29 -107 -56 -31
-26 -59 -41 -76 -41 -15 0 -49 -13 -74 -28 -25 -16 -64 -35 -86 -42 -48 -16
-126 -58 -140 -76 -5 -7 -28 -18 -50 -23 -43 -10 -177 -63 -210 -83 -11 -6
-45 -24 -75 -39 -30 -14 -69 -40 -85 -57 -19 -18 -52 -36 -90 -47 -70 -20
-125 -51 -125 -70 0 -8 -28 -27 -62 -42 -35 -15 -87 -40 -116 -55 -30 -16 -65
-28 -79 -28 -37 0 -105 -21 -126 -38 -9 -8 -17 -23 -17 -33 0 -26 -97 -139
-120 -139 -10 0 -22 4 -25 10 -11 18 -53 11 -69 -12 -9 -12 -16 -34 -16 -49 0
-45 -23 -54 -69 -28 -37 20 -43 21 -88 9 -74 -20 -124 -48 -174 -97 l-47 -45
-98 -8 c-124 -11 -141 -16 -185 -54 -89 -77 -103 -86 -146 -86 -43 0 -54 -7
-88 -54 -11 -16 -38 -36 -60 -46 -46 -20 -150 -96 -242 -178 -62 -55 -63 -58
-57 -96 4 -24 1 -47 -7 -63 -12 -23 -17 -24 -63 -18 -44 5 -52 4 -67 -16 -14
-18 -28 -23 -71 -25 -60 -2 -153 -21 -183 -37 -11 -6 -33 -17 -50 -24 -95 -44
-109 -62 -77 -96 39 -42 33 -48 -67 -62 -26 -3 -59 -17 -80 -34 -20 -16 -50
-36 -68 -45 -18 -9 -44 -32 -59 -52 -15 -19 -46 -45 -68 -56 -62 -31 -125 -87
-146 -128 -18 -34 -23 -37 -90 -49 -40 -7 -84 -19 -98 -27 -36 -18 -42 -18
-42 5 0 17 -6 19 -37 15 -21 -3 -46 -7 -55 -10 -32 -10 -19 -24 22 -24 22 0
40 -4 40 -10 0 -11 -35 -31 -49 -28 -17 5 -83 -93 -97 -144 -16 -64 -38 -88
-80 -88 -26 0 -40 -9 -68 -42 -20 -23 -36 -52 -36 -64 0 -29 -64 -82 -105 -88
-16 -3 -80 -10 -141 -17 -129 -14 -130 -15 -159 -134 -17 -69 -37 -105 -59
-105 -6 0 -45 -32 -86 -71 -41 -38 -84 -78 -95 -88 -11 -10 -31 -31 -45 -47
-14 -16 -38 -38 -53 -47 -15 -10 -32 -28 -38 -40 -5 -12 -25 -32 -44 -44 -23
-16 -37 -35 -45 -61 -5 -22 -19 -51 -30 -65 -11 -14 -20 -29 -20 -34 0 -19
-42 -53 -64 -53 -24 0 -206 -116 -206 -131 0 -4 -15 -23 -32 -41 -53 -55 -100
-118 -102 -136 -2 -10 -37 -34 -86 -60 -100 -51 -117 -65 -125 -103 -6 -24
-28 -47 -84 -86 -2 -2 -7 -20 -10 -40 -6 -37 -8 -38 -46 -38 -33 0 -45 -6 -70
-34 -59 -68 -113 -121 -124 -121 -6 0 -11 -4 -11 -9 0 -5 -14 -14 -30 -20 -17
-5 -30 -16 -30 -23 0 -25 -66 -88 -93 -88 -33 0 -136 -86 -163 -136 -16 -31
-27 -40 -57 -45 -20 -3 -54 -18 -75 -33 -50 -34 -165 -76 -210 -76 -31 0 -45
-9 -99 -65 -35 -36 -69 -65 -76 -65 -8 0 -22 -9 -32 -20 -10 -11 -37 -25 -59
-31 -23 -6 -52 -18 -66 -27 -14 -9 -34 -21 -45 -27 -11 -6 -24 -21 -30 -33 -5
-13 -21 -25 -35 -28 -14 -3 -32 -10 -40 -15 -8 -5 -31 -17 -50 -25 -19 -9 -66
-31 -105 -49 -112 -53 -144 -64 -147 -54 -2 6 -12 7 -22 3 -18 -7 -18 -8 -2
-14 15 -5 15 -7 -6 -17 -13 -6 -66 -24 -118 -39 -79 -24 -113 -29 -203 -29
-121 0 -127 3 -127 71 0 58 30 83 106 91 89 9 113 38 75 91 -10 15 -21 44 -25
65 -5 29 -14 40 -34 48 -31 12 -65 48 -81 87 -7 16 -25 36 -41 45 -16 10 -33
32 -40 51 -7 23 -19 36 -35 40 -27 7 -32 20 -13 32 6 4 20 -3 31 -17 10 -13
29 -24 40 -25 12 0 31 -4 42 -7 11 -4 35 -9 53 -11 28 -3 32 -1 32 20 0 23
-31 64 -49 64 -4 0 -36 27 -69 60 -34 33 -68 60 -76 60 -34 0 -56 41 -56 104
0 56 -2 63 -29 80 -23 16 -30 29 -35 69 -3 28 -13 81 -22 119 -15 59 -20 68
-39 68 -20 0 -23 6 -27 46 -3 44 2 115 18 217 6 41 3 53 -15 77 -11 16 -30 54
-42 85 -11 30 -25 55 -30 55 -5 0 -9 18 -9 40 0 22 -4 40 -9 40 -6 0 -24 13
-42 30 -29 26 -32 34 -30 80 2 39 -1 50 -14 50 -12 0 -15 14 -15 80 0 73 2 80
20 80 17 0 20 7 20 40 0 22 -4 40 -10 40 -6 0 -7 23 -4 58 3 31 0 84 -6 117
-7 33 -13 79 -13 102 -1 23 -5 39 -8 37 -12 -7 4 40 18 54 15 15 17 32 4 32
-7 0 -24 128 -23 167 0 5 -6 15 -14 24 -9 10 -18 42 -21 73 -3 31 -10 56 -14
56 -5 0 -9 12 -9 28 0 28 -21 96 -33 108 -11 11 -8 52 3 59 13 8 13 52 1 60
-6 3 -10 33 -11 68 -1 95 -6 116 -34 138 -19 15 -26 30 -26 53 0 48 -27 93
-66 112 -19 9 -34 17 -34 19 0 1 19 0 43 -2 l42 -5 -1 63 c-1 83 -13 179 -23
179 -4 0 -7 10 -7 22 1 17 -7 25 -29 33 -53 18 -55 21 -55 105 0 60 -3 79 -15
84 -11 4 -15 21 -15 61 0 30 -3 54 -7 53 -5 -2 -23 3 -41 11 -24 10 -31 18
-27 30 10 25 15 321 5 321 -4 0 -9 49 -12 109 -2 70 -8 114 -17 124 -9 12 -11
36 -7 89 7 78 4 88 -31 107 -20 10 -23 19 -23 79 0 39 5 73 12 80 9 9 9 18 0
37 -7 14 -12 45 -12 69 0 48 -34 92 -63 80 -15 -5 -17 5 -14 103 2 93 -1 112
-15 127 -10 10 -21 29 -24 43 -5 18 -12 23 -25 20 -15 -4 -19 0 -19 24 0 24
-4 29 -25 29 -14 0 -25 4 -25 10 0 5 -16 26 -35 46 l-35 36 0 109 c0 143 -12
169 -75 169 -33 0 -45 4 -45 15 0 11 11 15 40 15 33 0 40 3 40 20 0 13 7 20
19 20 20 0 37 32 27 49 -10 15 5 40 20 34 11 -4 14 4 14 34 0 30 -5 40 -22 48
-13 6 -24 19 -26 30 -2 11 -16 31 -32 45 -15 14 -31 39 -34 55 -12 52 -26 128
-32 178 -4 30 -11 47 -20 47 -20 0 -19 3 14 67 16 31 15 98 -2 132 -8 15 -13
37 -10 47 4 16 12 18 50 16 24 -2 51 1 58 7 18 15 9 51 -13 51 -9 0 -25 13
-36 27 -18 26 -21 54 -13 127 3 27 -1 31 -40 43 -26 7 -61 29 -85 53 -34 33
-47 40 -67 35 -14 -4 -36 -7 -50 -8 -23 -2 -25 1 -22 37 2 22 8 49 15 60 6 12
10 50 8 85 -2 54 -6 67 -27 83 -18 15 -24 29 -24 59 0 21 -4 39 -10 39 -5 0
-10 7 -10 15 0 9 -11 38 -25 65 -14 27 -25 56 -25 65 0 8 -4 15 -9 15 -7 0
-21 45 -25 85 -5 36 -19 74 -30 78 -10 4 -12 -1 -9 -16 5 -20 4 -20 -8 -5 -8
9 -25 18 -39 20 l-25 3 29 29 c22 23 30 26 37 15 6 -10 9 -6 9 14 0 16 -4 26
-9 23 -21 -13 -55 139 -34 152 14 9 27 368 14 377 -6 3 -32 7 -58 9 -30 1 -48
8 -51 17 -3 8 -11 22 -20 31 -13 15 -13 20 -1 35 12 14 12 16 -1 11 -13 -5
-15 1 -12 28 2 19 8 34 13 34 25 0 3 80 -52 193 -22 43 -39 87 -39 98 0 30
-28 79 -45 79 -8 0 -16 5 -16 10 -1 6 -3 22 -6 38 -2 15 -6 75 -9 135 -3 60
-10 107 -15 107 -16 0 -36 61 -38 120 -1 30 -6 59 -10 65 -5 5 -5 19 -1 30 11
32 -21 59 -62 51 -30 -5 -35 -3 -45 23 -6 17 -8 31 -3 33 4 2 10 28 13 58 6
49 4 58 -17 81 -17 19 -27 49 -40 124 -24 140 -27 155 -36 155 -4 0 -13 14
-20 30 -7 17 -16 30 -19 30 -4 0 -13 23 -19 51 -7 28 -19 57 -27 65 -8 9 -15
26 -15 39 0 13 -4 34 -9 47 -5 13 -14 52 -20 88 -7 36 -20 76 -30 90 -10 14
-21 42 -25 63 -4 21 -13 37 -20 37 -15 0 -26 21 -26 50 0 10 -14 32 -30 50
-17 18 -30 38 -30 46 0 8 -5 14 -11 14 -8 0 -10 17 -7 51 4 43 2 54 -14 68
-78 65 -73 54 -71 138 1 67 -3 85 -25 126 -22 41 -24 52 -14 68 7 11 15 38 18
62 5 41 4 42 -37 62 -23 11 -47 29 -53 40 -6 10 -19 28 -28 38 -11 13 -17 36
-16 62 0 33 -6 48 -28 73 -16 17 -35 38 -41 46 -8 10 -13 48 -13 106 0 78 -3
94 -20 113 -12 12 -31 43 -43 69 -12 26 -30 50 -39 53 -14 5 -18 18 -18 56 0
42 3 49 20 49 16 0 20 7 20 30 0 28 -2 30 -41 30 -33 0 -40 3 -35 16 3 8 2 12
-4 9 -5 -3 -16 10 -26 30 -17 38 -24 41 -41 24 -8 -8 -14 -6 -22 9 -7 12 -7
23 -2 26 5 4 11 0 14 -6 2 -7 8 -10 12 -5 5 4 3 13 -3 19 -7 7 -12 22 -12 34
0 12 -5 24 -11 26 -9 3 -9 9 0 26 6 12 15 30 20 40 6 13 4 35 -7 68 -23 69
-53 104 -88 104 -38 0 -110 39 -123 66 -7 16 -5 25 7 38 16 16 15 19 -11 41
-15 13 -27 30 -27 38 0 21 -70 50 -117 48 -38 -2 -43 0 -43 18 0 18 -6 21 -40
21 -29 0 -40 -4 -40 -15 0 -11 -11 -15 -40 -15 -36 0 -40 3 -40 25 0 23 -4 25
-40 25 -29 0 -40 4 -40 15 0 8 -8 15 -17 15 -22 0 -63 42 -63 64 0 12 -10 16
-38 16 -35 0 -39 -3 -51 -37 -10 -27 -11 -38 -2 -41 22 -7 10 -29 -26 -46 -27
-13 -38 -14 -44 -5 -4 8 -23 10 -54 7 -51 -6 -49 -8 -76 80 -7 25 -18 42 -27
42 -8 0 -20 6 -26 14 -6 8 -27 16 -46 18 -27 2 -35 -1 -38 -14 -2 -10 3 -18
10 -18 19 0 36 -71 29 -117 -7 -45 -35 -56 -57 -24 -19 26 -39 27 -61 1 -10
-11 -25 -20 -35 -20 -13 0 -18 -10 -21 -42 l-4 -43 -1 43 c-1 23 -6 42 -11 42
-9 0 -37 60 -33 73 1 4 -3 7 -9 7 -6 0 -28 18 -49 40 -40 42 -85 54 -96 26 -3
-8 -12 -17 -20 -20 -10 -4 -14 3 -14 29 0 34 1 35 40 35 22 0 40 5 40 10 0 6
18 10 40 10 36 0 40 3 40 25 0 27 -12 29 -117 25 -23 -1 -54 5 -70 13 -36 19
-74 52 -72 63 1 5 1 21 0 37 -1 25 -4 27 -41 27 l-40 0 0 -40 c0 -22 5 -40 10
-40 6 0 10 -6 10 -13 0 -8 18 -22 40 -32 22 -10 40 -22 40 -27 0 -4 7 -8 15
-8 11 0 15 -11 15 -40 0 -51 -17 -53 -23 -2 -2 22 -5 7 -7 -38 -1 -41 -2 -78
-1 -82 0 -5 -7 -8 -16 -8 -45 -1 -48 -16 -13 -73 18 -31 43 -61 55 -67 32 -17
55 -78 55 -144 0 -38 5 -63 15 -72 19 -20 19 -34 0 -34 -16 0 -19 -25 -15
-111 2 -64 -22 -74 -40 -16 -6 23 -19 53 -28 67 -11 18 -15 46 -14 99 2 87
-16 150 -56 192 -44 47 -75 114 -68 144 6 22 9 25 22 14 8 -6 18 -9 21 -5 4 4
3 10 -2 14 -6 4 -10 21 -11 39 -1 21 -15 51 -43 88 -24 31 -52 77 -63 102 -22
50 -20 55 45 111 25 22 28 29 22 66 -4 23 -11 45 -16 51 -11 11 -11 175 0 232
5 27 3 68 -6 115 -7 40 -18 120 -24 178 -5 58 -11 114 -12 125 -5 32 -30 95
-39 95 -4 0 -8 8 -8 18 0 9 -14 32 -30 51 -17 18 -35 52 -40 75 -12 46 -70
169 -82 174 -4 2 -8 10 -8 18 0 14 -35 82 -51 99 -5 5 -9 17 -9 27 0 10 -3 18
-8 18 -4 0 -13 35 -20 77 -6 42 -15 79 -19 82 -13 10 -81 154 -95 200 -7 25
-22 56 -33 70 -31 38 -48 87 -42 118 3 16 -3 54 -14 86 -11 32 -17 62 -14 67
3 6 -2 45 -11 89 l-17 78 37 59 c43 71 51 148 17 178 -11 10 -23 31 -26 47 -4
16 -11 29 -15 29 -12 0 -30 66 -30 108 0 20 6 35 15 38 17 7 20 49 5 59 -9 6
5 43 22 55 16 12 29 108 23 163 -5 38 -3 68 5 87 12 30 35 40 42 19 3 -8 14
-7 35 5 18 9 52 16 78 16 33 0 45 4 45 15 0 8 -5 15 -10 15 -7 0 -7 6 -1 18
14 27 -22 65 -62 65 -30 0 -106 38 -108 55 0 4 -2 18 -4 32 -2 14 0 50 5 81 8
53 -1 120 -28 205 -8 25 -6 35 9 55 10 13 19 30 19 37 0 20 -28 14 -35 -8 -3
-11 -11 -20 -16 -20 -5 0 -9 -7 -9 -15 0 -9 -7 -18 -15 -21 -8 -3 -17 -22 -21
-42 -3 -21 -23 -62 -43 -92 -29 -45 -36 -64 -36 -105 0 -34 -8 -63 -22 -88
-13 -21 -31 -70 -42 -110 -11 -40 -24 -85 -30 -102 -16 -46 -51 -207 -51 -235
0 -14 -7 -38 -15 -54 -8 -15 -15 -35 -15 -42 0 -8 -6 -14 -14 -14 -8 0 -16 -5
-18 -11 -2 -5 -11 -11 -20 -13 -10 -1 -20 -5 -23 -8 -3 -3 -8 -57 -10 -121 -5
-107 -4 -117 15 -135 29 -27 37 -100 15 -146 -13 -27 -22 -35 -34 -31 -9 4
-29 12 -44 17 -21 8 -27 16 -24 29 4 14 0 19 -13 19 -10 0 -20 -7 -22 -16 -3
-14 -5 -14 -24 3 -31 28 -54 65 -54 89 0 16 -11 27 -40 41 -22 10 -40 23 -40
28 0 6 -17 22 -38 35 -20 13 -46 37 -57 54 -30 46 -48 40 -60 -20 l-10 -51
-50 23 c-56 26 -105 88 -105 132 0 44 -19 100 -44 128 -19 23 -25 25 -45 15
-20 -11 -21 -17 -15 -59 3 -26 10 -54 15 -63 5 -10 2 -19 -10 -26 -23 -14 -41
1 -41 32 0 12 -7 30 -15 41 -20 27 -18 57 5 84 11 13 20 28 20 35 0 25 -40 47
-92 51 -45 3 -55 1 -66 -17 -10 -15 -10 -28 -3 -52 6 -18 13 -62 17 -99 4 -49
10 -68 20 -68 10 0 13 -16 13 -68 -1 -58 3 -74 25 -107 14 -21 26 -49 26 -62
0 -13 5 -33 11 -45 10 -18 19 -20 109 -17 54 2 102 0 106 -4 4 -4 7 -27 5 -51
-1 -24 2 -47 8 -51 6 -3 11 -22 11 -42 0 -25 4 -34 13 -30 10 4 12 -3 9 -23
-4 -26 -1 -29 48 -39 102 -22 140 -6 140 57 0 39 27 57 64 42 14 -5 26 -16 26
-25 0 -8 4 -15 9 -15 5 0 14 -34 20 -77 9 -60 24 -102 71 -195 33 -65 60 -124
60 -131 0 -7 9 -29 20 -50 20 -37 27 -107 11 -107 -5 0 -12 -46 -16 -102 -4
-57 -14 -115 -21 -130 -16 -30 -18 -69 -6 -83 5 -6 14 -34 21 -62 15 -62 4
-108 -33 -140 -29 -25 -52 -15 -72 33 -17 40 -81 79 -134 83 -18 1 -20 8 -20
81 0 64 -3 80 -15 80 -8 0 -15 5 -15 10 0 6 -31 10 -74 10 -43 0 -89 6 -109
15 -20 8 -59 15 -87 15 -43 0 -50 -3 -50 -20 0 -17 7 -20 43 -22 37 -1 38 -2
9 -5 -18 -3 -38 -13 -45 -24 -8 -13 -23 -19 -49 -19 -31 0 -38 4 -38 20 0 13
-7 20 -20 20 -10 0 -23 8 -28 17 -8 13 -22 16 -61 14 -49 -2 -51 -1 -51 24 0
22 -4 25 -39 25 -22 0 -41 5 -43 11 -3 8 -27 9 -81 4 l-77 -7 0 -44 c0 -32 -4
-44 -15 -44 -10 0 -15 11 -15 35 0 19 -5 35 -11 35 -5 0 -8 4 -4 9 3 5 -2 17
-11 26 -13 12 -19 13 -24 4 -9 -13 -80 51 -80 73 0 7 -17 22 -38 33 -33 18
-46 19 -119 11 -46 -5 -83 -13 -83 -17 0 -10 -90 -12 -114 -3 -25 10 -19 34 9
34 22 0 25 4 25 35 0 28 -8 44 -37 73 l-38 37 -5 -70 c-5 -72 -24 -98 -34 -47
-8 35 1 185 14 237 15 61 12 97 -11 140 -48 94 -65 149 -58 190 5 27 2 53 -8
80 -8 22 -22 76 -30 120 -8 43 -21 91 -29 107 -8 15 -14 36 -14 46 0 11 -21
63 -46 117 -36 75 -48 113 -52 164 -3 48 -13 82 -36 125 -17 32 -39 74 -49 93
-17 32 -24 81 -46 305 -9 86 -25 152 -43 175 -12 15 -1 199 17 273 12 49 24
495 15 525 -2 6 -4 41 -4 78 -1 46 -5 70 -15 76 -9 6 -12 18 -7 37 4 16 11 53
15 83 7 48 27 81 52 81 11 0 16 47 7 64 -13 23 -52 20 -86 -9 -25 -21 -30 -33
-35 -92 -3 -38 -13 -88 -22 -113 -9 -25 -22 -63 -28 -85 -7 -22 -15 -42 -18
-45 -7 -5 -15 -27 -73 -187 -13 -34 -30 -72 -38 -85 -8 -13 -20 -38 -27 -55
-8 -18 -17 -33 -22 -33 -5 0 -9 -9 -9 -20 0 -11 -6 -20 -13 -20 -8 0 -19 -18
-26 -40 -6 -22 -16 -40 -20 -40 -15 0 -22 -134 -11 -186 7 -31 8 -50 1 -52 -5
-2 -1 -19 10 -37 12 -19 18 -39 14 -44 -3 -6 3 -28 15 -50 26 -53 26 -58 -12
-77 -18 -9 -36 -22 -40 -28 -15 -22 -7 -76 17 -122 25 -47 30 -85 19 -143 -11
-55 -42 -32 -35 26 1 7 -15 20 -36 29 -21 9 -44 19 -52 23 -7 4 -22 40 -32 81
-24 91 -39 116 -81 125 -36 8 -48 19 -65 58 -15 32 -28 34 -43 8 -13 -26 -13
-88 1 -93 8 -3 4 -18 -10 -47 -25 -49 -19 -66 30 -76 16 -4 29 -11 29 -16 0
-6 4 -8 9 -5 5 3 9 -5 9 -18 0 -15 16 -40 41 -66 22 -23 41 -51 41 -62 0 -11
-12 -40 -27 -64 -27 -41 -30 -43 -76 -44 -43 0 -52 -4 -92 -45 -36 -36 -45
-51 -45 -80 0 -34 -1 -35 -40 -35 -35 0 -40 3 -40 23 0 43 -13 68 -43 83 -23
12 -31 13 -37 4 -6 -9 -18 -2 -44 23 -20 20 -36 41 -36 46 0 13 -40 20 -144
26 -86 5 -132 15 -68 15 18 0 32 5 32 10 0 6 -13 10 -30 10 -22 0 -30 5 -30
18 0 21 -42 62 -64 62 -9 0 -16 8 -16 20 0 16 -7 20 -37 20 -30 0 -43 -7 -72
-39 -41 -44 -90 -61 -111 -36 -7 8 -18 15 -24 15 -14 0 -76 64 -76 79 0 6 -6
11 -12 11 -9 0 -8 4 2 10 11 7 5 10 -24 10 -31 0 -46 7 -73 35 -19 19 -38 35
-42 35 -5 0 -11 7 -15 15 -3 8 -11 15 -19 15 -7 0 -18 5 -24 11 -14 14 1 56
29 81 13 12 18 28 16 50 -3 30 -8 35 -63 54 -32 12 -61 27 -63 35 -3 8 -9 20
-15 27 -14 17 -47 -13 -47 -44 0 -12 -5 -24 -11 -26 -8 -3 -7 -17 2 -48 7 -25
13 -65 14 -88 0 -36 -4 -47 -25 -62 l-26 -18 -42 56 c-23 32 -42 67 -42 80 0
12 -4 22 -9 22 -5 0 -12 21 -16 48 -4 26 -12 56 -17 66 -6 11 -16 44 -23 74
-12 49 -11 62 8 125 l21 69 -32 27 c-32 26 -32 27 -32 116 0 73 -5 102 -25
150 -14 33 -25 69 -25 80 0 11 -9 35 -21 54 -20 33 -20 35 -3 72 20 45 16 100
-15 217 -11 40 -3 135 15 163 3 5 -4 27 -15 49 -18 35 -19 45 -8 95 10 48 9
63 -6 104 -9 27 -17 60 -17 74 0 29 41 120 73 160 19 24 22 43 25 137 3 88 1
113 -12 131 -21 30 -20 58 1 89 13 19 16 43 14 115 -2 85 0 97 28 151 16 32
37 84 45 114 20 69 21 70 79 103 64 38 62 77 -5 77 -21 0 -48 -22 -48 -40 0
-6 -16 -20 -37 -32 -20 -12 -31 -24 -25 -26 7 -2 12 -9 12 -15 0 -8 -4 -7 -12
1 -39 39 -114 -15 -88 -64 9 -16 10 -27 3 -36 -6 -7 -16 -38 -23 -68 -14 -57
-38 -94 -56 -82 -6 4 -17 20 -25 36 -18 39 -34 43 -53 14 -29 -44 -30 -80 -4
-111 13 -15 31 -27 41 -27 28 0 20 -42 -24 -127 -33 -61 -42 -90 -44 -133 -1
-30 -9 -66 -17 -80 -9 -14 -19 -44 -23 -67 -7 -42 -8 -43 -45 -43 -26 0 -48
-8 -68 -25 -17 -14 -35 -25 -41 -25 -6 0 -11 -7 -11 -15 0 -8 -9 -15 -20 -15
-11 0 -20 -5 -20 -11 0 -5 -20 -19 -45 -30 -25 -11 -45 -23 -45 -27 0 -17 34
-54 78 -84 26 -17 49 -35 52 -39 3 -4 24 -15 47 -24 24 -10 57 -36 80 -63 36
-43 40 -54 47 -122 9 -100 44 -168 94 -184 12 -4 22 -10 23 -14 0 -4 2 -43 2
-87 2 -64 7 -88 26 -122 30 -52 21 -77 -37 -108 -30 -16 -38 -27 -40 -53 -2
-22 3 -41 14 -53 15 -17 16 -24 5 -61 -10 -31 -15 -38 -22 -27 -6 10 -11 11
-16 3 -5 -6 -25 -14 -45 -17 -28 -4 -43 -1 -62 14 -31 24 -43 24 -56 -1 -16
-31 -27 -24 -34 21 -4 27 -13 43 -24 46 -19 4 -82 118 -82 146 0 10 -8 17 -20
17 -11 0 -20 4 -20 10 0 5 -12 13 -27 16 -16 4 -50 18 -77 30 -45 22 -63 24
-193 24 -136 0 -143 1 -143 20 0 17 -7 20 -40 20 -22 0 -40 5 -40 10 0 18 -40
-9 -52 -35 -14 -32 -57 -46 -144 -50 -71 -3 -104 -14 -134 -43 -11 -12 -12
-16 -2 -20 6 -2 12 -9 12 -15 0 -6 7 -18 15 -27 29 -32 -7 -65 -80 -72 -28 -3
-32 2 -62 62 -17 36 -42 91 -55 122 -13 31 -44 80 -69 108 -60 71 -87 118 -94
165 -13 82 -59 188 -101 230 -21 21 -35 139 -23 197 19 91 20 105 6 155 -8 29
-10 54 -5 55 5 2 10 29 12 61 3 68 18 91 41 61 14 -18 14 -18 15 9 0 17 5 27
15 27 11 0 15 11 15 40 0 22 5 40 10 40 6 0 10 33 10 80 l0 80 31 0 c53 0 28
25 -29 28 -42 2 -52 0 -52 -12 0 -9 -7 -16 -15 -16 -12 0 -15 16 -15 80 0 62
-3 80 -14 80 -8 0 -16 7 -20 15 -6 17 37 50 54 40 5 -3 10 1 10 9 0 9 4 16 9
16 24 0 30 121 11 245 -7 41 -6 69 1 90 10 27 8 39 -15 87 l-26 56 20 48 c25
58 28 160 6 219 -8 22 -15 34 -16 27z m436 -2968 c22 -22 34 -41 30 -50 -6
-16 40 -74 59 -74 21 0 40 -46 40 -97 0 -54 10 -77 24 -54 16 25 26 3 23 -48
-3 -42 -7 -51 -23 -51 -10 0 -19 7 -19 15 0 8 -4 15 -9 15 -5 0 -12 8 -15 18
-4 11 -17 25 -31 32 -21 12 -105 156 -105 182 0 5 -9 17 -21 26 -12 11 -22 33
-25 60 -8 73 16 82 72 26z m199 -424 c4 -11 11 -18 16 -15 5 3 6 -1 3 -9 -3
-9 3 -17 16 -21 16 -5 20 -12 16 -28 -3 -12 -6 -41 -6 -64 0 -36 -3 -43 -19
-43 -17 0 -18 -6 -14 -42 3 -24 9 -58 14 -77 4 -19 4 -41 0 -49 -7 -13 -13
-11 -36 12 -26 26 -27 32 -22 88 3 34 11 64 18 69 17 10 18 151 1 157 -14 4
-16 42 -3 42 5 0 13 -9 16 -20z m1445 -35 c8 -17 18 -32 22 -35 10 -8 38 -122
32 -132 -14 -23 -94 21 -94 52 0 8 -6 40 -14 70 -10 40 -11 59 -4 68 17 20 41
10 58 -23z m120 -327 c0 -28 18 -58 35 -58 8 0 15 -3 15 -8 0 -4 10 -12 23
-17 21 -9 22 -15 19 -89 -4 -83 -15 -126 -32 -126 -5 0 -10 9 -10 20 0 11 -4
20 -9 20 -9 0 -52 93 -58 125 -6 34 -6 39 2 58 4 10 3 17 -4 17 -6 0 -11 8
-11 19 0 10 -7 24 -15 31 -20 16 -19 28 3 32 27 6 42 -2 42 -24z m155 -378
c14 0 25 -22 25 -51 0 -11 11 -41 24 -67 l24 -48 -21 -17 c-24 -19 -50 -22
-78 -7 -20 11 -26 45 -9 55 17 11 11 50 -15 99 -14 26 -25 56 -25 67 0 20 2
19 31 -5 17 -14 36 -26 44 -26z m365 -975 c7 -8 14 -53 16 -101 2 -60 9 -98
24 -128 11 -23 20 -54 20 -68 0 -15 7 -33 15 -42 22 -22 19 -79 -4 -93 -17
-11 -21 -10 -26 6 -3 11 -3 30 0 43 5 21 -1 38 -42 113 -31 58 -35 73 -26 116
7 38 5 51 -19 98 -15 30 -28 58 -28 63 0 14 57 9 70 -7z m90 -479 c0 -7 6 -19
13 -25 8 -6 22 -35 32 -66 11 -30 25 -55 31 -55 20 0 25 -15 30 -87 5 -67 14
-93 43 -126 9 -11 14 -31 13 -48 -3 -28 -2 -29 42 -29 35 0 48 -5 56 -19 14
-27 13 -41 -5 -41 -9 0 -15 -9 -15 -24 0 -18 -6 -25 -22 -28 l-23 -3 23 -20
c24 -21 29 -51 10 -57 -8 -3 -9 -11 -3 -24 8 -18 9 -18 12 4 3 12 9 22 14 22
5 0 9 18 9 40 0 33 3 40 20 40 17 0 20 -7 20 -40 0 -22 5 -40 10 -40 6 0 10
-18 10 -40 0 -36 -2 -40 -25 -40 -47 0 -30 -63 54 -200 13 -21 21 -52 21 -77
0 -39 -2 -43 -25 -43 -38 0 -30 -13 21 -38 38 -19 49 -31 69 -76 25 -57 25
-126 0 -126 -8 0 -16 -6 -19 -12 -5 -10 -7 -10 -12 0 -6 13 -54 17 -54 3 0
-17 22 -71 30 -71 4 0 10 -28 13 -62 5 -54 3 -63 -16 -79 -12 -10 -28 -18 -36
-19 -10 0 -12 -16 -6 -80 5 -58 4 -80 -5 -80 -6 0 1 -11 16 -24 26 -22 28 -30
36 -137 10 -152 18 -211 30 -226 7 -9 7 -13 -1 -13 -6 0 -11 -17 -11 -40 0
-33 3 -40 20 -40 17 0 20 -7 20 -40 0 -33 -3 -40 -20 -40 -19 0 -20 -7 -20
-149 0 -107 4 -153 13 -163 23 -24 37 -107 37 -216 0 -75 5 -115 15 -136 8
-15 15 -39 15 -52 0 -13 9 -38 20 -56 12 -20 20 -51 20 -76 0 -24 9 -62 20
-84 24 -51 26 -108 3 -151 l-16 -32 -9 25 c-5 14 -17 39 -25 55 -9 17 -23 43
-31 60 -11 21 -15 54 -13 113 1 57 -3 100 -15 134 -9 27 -14 61 -11 76 3 15
-5 54 -19 92 -23 59 -25 77 -23 200 3 121 1 140 -19 184 -17 38 -24 75 -27
155 -3 58 -10 138 -16 176 -10 68 -20 182 -36 411 -6 80 -13 118 -26 138 -14
20 -17 37 -12 60 4 17 8 54 9 81 2 28 10 73 20 101 25 76 20 187 -10 241 -20
34 -24 56 -24 122 0 70 -4 88 -32 143 -17 35 -35 65 -40 66 -4 2 -8 13 -8 24
0 10 -11 39 -25 62 -22 38 -25 53 -24 134 1 72 -2 94 -15 107 -15 15 -20 38
-18 74 0 8 -10 34 -23 57 -16 29 -24 58 -23 92 0 36 -8 64 -31 107 -36 67 -35
65 -16 65 8 0 15 -6 15 -14z m1470 -211 c0 -20 9 -42 25 -59 35 -38 33 -76 -6
-98 -57 -33 -109 -15 -109 37 0 30 27 112 46 142 20 31 44 19 44 -22z m-3199
-150 c15 -144 24 -192 39 -210 10 -12 10 -19 2 -27 -7 -7 -12 -28 -13 -47 0
-35 -1 -36 -12 -11 -7 14 -22 33 -34 43 -27 21 -29 40 -8 61 16 16 21 86 6 86
-14 0 -24 122 -16 187 6 51 9 55 17 33 5 -13 13 -65 19 -115z m-975 -100 c40
-47 60 -280 23 -280 -8 0 -13 8 -11 18 2 11 -4 17 -18 17 -15 0 -20 6 -20 28
0 15 -7 59 -16 97 -12 52 -24 77 -46 97 -37 34 -29 48 25 48 32 0 46 -6 63
-25z m5044 -580 c18 -10 30 -23 30 -36 0 -11 13 -32 29 -47 17 -15 37 -44 45
-64 9 -20 20 -39 26 -43 5 -3 10 -24 10 -45 0 -21 5 -42 10 -45 6 -3 10 -15
10 -25 0 -10 14 -30 30 -43 38 -32 38 -48 -1 -86 -29 -29 -59 -41 -59 -23 0 5
-9 19 -20 32 -14 16 -20 37 -20 69 0 25 -7 59 -15 75 -8 15 -15 43 -15 62 0
20 -12 52 -30 81 -16 26 -30 53 -30 60 0 7 -3 13 -7 13 -9 0 -33 49 -33 67 0
17 5 16 40 -2z m-3993 -189 c7 -45 -1 -76 -28 -105 -21 -22 -21 -27 -11 -68
16 -58 15 -79 -5 -125 -17 -38 -39 -47 -37 -15 0 10 1 52 2 95 2 63 6 84 22
102 23 26 26 68 8 116 -9 26 -9 36 1 48 11 14 15 14 28 1 8 -8 17 -30 20 -49z
m4783 -908 c1 -40 4 -91 9 -114 4 -23 5 -65 1 -93 -8 -65 7 -118 36 -125 15
-4 23 -16 26 -37 12 -79 -23 -101 -42 -28 -12 43 -21 46 -73 24 -53 -22 -83
-19 -106 11 -28 36 -26 63 6 98 25 28 31 50 33 136 0 32 5 37 50 59 47 23 50
27 50 62 0 21 -4 41 -10 44 -15 10 -12 35 5 35 12 0 15 -15 15 -72z m-6420
-48 c33 -33 40 -46 40 -79 0 -22 7 -67 16 -100 11 -46 13 -70 5 -97 -12 -44
-47 -84 -74 -84 -18 0 -19 -6 -15 -60 3 -36 11 -66 21 -78 10 -11 17 -35 17
-60 0 -23 5 -42 10 -42 15 0 12 -86 -4 -99 -7 -6 -20 -9 -29 -5 -17 6 -37 -23
-37 -55 0 -12 -4 -21 -10 -21 -5 0 -10 -9 -10 -19 0 -17 -4 -18 -36 -11 -35 8
-72 42 -53 48 5 2 9 10 9 17 0 8 13 23 29 34 23 17 31 31 36 74 11 74 8 112
-10 148 -13 24 -15 46 -10 98 3 36 7 109 8 161 1 58 7 104 16 119 9 17 11 41
7 81 -10 84 10 93 74 30z m8370 -769 c11 -22 24 -42 30 -46 5 -3 10 -19 10
-35 0 -16 4 -31 9 -34 5 -3 23 -31 41 -62 26 -47 31 -65 27 -103 -2 -25 0 -68
5 -94 6 -27 7 -70 3 -95 l-7 -47 -15 30 c-9 17 -26 41 -38 55 -29 32 -64 112
-76 174 -7 36 -18 57 -46 83 -36 32 -38 37 -38 96 0 93 9 117 45 117 24 0 33
-7 50 -39z m-6559 -358 c34 -70 35 -106 3 -111 -43 -6 -82 140 -68 253 4 33 7
66 5 74 -1 7 1 20 5 30 4 9 11 -25 16 -83 7 -80 14 -112 39 -163z m-1750 -111
c-27 -4 -26 -11 4 -52 27 -37 31 -60 15 -91 -9 -16 -7 -19 10 -19 23 0 27 -18
5 -26 -11 -5 -13 -17 -8 -52 3 -26 10 -53 16 -60 7 -9 6 -25 -3 -51 -7 -23
-10 -51 -5 -68 4 -15 9 -47 12 -70 3 -23 11 -47 19 -54 8 -6 14 -17 14 -24 0
-7 7 -18 15 -25 10 -9 12 -17 5 -30 -7 -13 -6 -20 1 -22 7 -2 11 -44 10 -122
-1 -104 2 -121 19 -143 14 -19 20 -41 20 -79 0 -32 4 -54 11 -54 12 0 3 -161
-13 -224 -11 -43 -37 -85 -53 -86 -5 0 -23 11 -39 23 -27 22 -28 26 -21 73 5
27 7 54 6 59 -2 6 -7 45 -12 88 -7 62 -6 84 6 115 15 35 15 38 -4 54 -12 9
-21 27 -21 40 0 13 -9 41 -21 62 -19 35 -20 44 -9 77 7 22 9 45 5 56 -5 10
-12 68 -16 128 -17 236 -30 356 -43 386 -9 22 -10 44 -4 81 10 51 -3 108 -24
108 -5 0 -8 5 -6 12 2 6 24 17 49 23 40 10 46 10 63 -9 18 -21 18 -21 -3 -24z
m3850 -15 c36 -28 50 -77 59 -210 4 -73 13 -145 19 -160 7 -17 8 -35 2 -45
-10 -21 -21 -72 -27 -130 -5 -45 8 -82 29 -82 7 0 18 -10 26 -22 12 -19 11
-23 -10 -39 -13 -10 -27 -19 -30 -19 -13 0 -16 -40 -7 -87 5 -26 9 -102 9
-168 0 -127 13 -225 31 -225 11 0 4 -122 -12 -195 -11 -51 7 -125 31 -125 14
0 18 -14 23 -72 14 -157 18 -188 27 -188 5 0 9 -27 9 -59 0 -37 5 -65 13 -73
14 -14 29 -128 27 -202 0 -21 -7 -50 -14 -64 -12 -23 -11 -27 20 -58 21 -20
34 -42 34 -58 0 -19 5 -26 19 -26 12 0 24 -12 32 -32 7 -18 27 -46 44 -63 29
-28 31 -34 27 -87 -3 -49 -7 -58 -23 -58 -11 0 -19 -7 -19 -16 0 -8 -7 -22
-16 -31 -8 -9 -13 -22 -10 -29 7 -19 -24 -84 -41 -84 -9 0 -13 -14 -13 -40 l0
-40 54 0 c52 0 55 -1 65 -31 17 -49 14 -129 -4 -129 -18 0 -20 -55 -4 -97 7
-15 11 -57 10 -92 -1 -48 3 -71 19 -98 11 -19 20 -39 20 -45 0 -6 16 -25 35
-42 32 -28 35 -35 29 -64 -7 -34 -30 -53 -43 -36 -3 5 -19 15 -35 22 -27 12
-28 12 -22 -10 3 -13 6 -40 6 -60 l0 -38 50 0 c47 0 54 -4 96 -45 l45 -46 -30
-28 c-17 -16 -31 -34 -31 -40 0 -18 34 -85 48 -94 18 -12 15 -44 -5 -56 -17
-10 -17 -10 0 -11 9 0 17 -5 17 -11 0 -6 -7 -8 -16 -5 -9 3 -27 9 -40 12 -13
3 -24 12 -24 19 0 6 -9 22 -19 34 l-20 23 -20 -43 c-22 -44 -26 -57 -15 -46 8
8 39 -8 75 -41 27 -24 29 -30 29 -104 0 -75 1 -78 23 -78 19 0 26 -8 34 -37
10 -40 10 -130 -1 -140 -3 -3 -6 -14 -6 -23 0 -9 -12 -23 -27 -31 -40 -20 -52
-39 -53 -79 0 -24 6 -39 20 -47 10 -7 22 -28 26 -47 3 -20 12 -40 20 -47 8 -6
14 -28 14 -48 -1 -34 -1 -35 -16 -16 -15 20 -15 20 -30 1 -17 -24 -17 -36 1
-60 11 -15 12 -24 3 -40 -14 -27 -38 -45 -60 -46 -9 0 -20 -4 -23 -10 -9 -14
13 -50 30 -50 19 0 19 -14 0 -30 -20 -17 -19 -27 5 -47 19 -17 29 -60 11 -49
-5 3 -24 -1 -43 -8 -28 -12 -34 -19 -32 -43 2 -40 2 -39 29 -72 14 -16 32 -55
40 -86 10 -35 26 -66 45 -85 18 -18 27 -35 24 -45 -3 -8 -1 -15 5 -15 6 0 11
-4 11 -10 0 -6 -27 -10 -60 -10 -49 0 -61 -3 -70 -20 -10 -19 0 -93 15 -108 4
-4 37 -8 73 -8 118 -2 122 -3 122 -20 0 -14 -9 -16 -65 -12 -73 6 -78 3 -114
-75 -21 -47 -21 -76 0 -103 5 -6 25 -42 45 -80 21 -38 40 -71 44 -74 12 -8 32
-354 20 -358 -13 -5 -13 -82 0 -82 6 0 10 -18 10 -39 0 -29 7 -47 30 -71 25
-27 30 -40 30 -81 0 -35 4 -49 14 -49 7 0 18 -17 24 -39 8 -34 6 -45 -14 -81
-13 -23 -24 -52 -24 -64 0 -12 -6 -28 -12 -35 -10 -11 -10 -14 0 -18 7 -3 12
-22 12 -44 0 -32 3 -39 20 -39 17 0 20 -7 20 -49 0 -44 -19 -85 -50 -111 -4
-3 -15 -21 -26 -40 -10 -19 -23 -38 -28 -41 -5 -4 -7 -23 -4 -43 2 -20 0 -36
-4 -36 -4 0 -8 -12 -8 -26 0 -14 -4 -23 -9 -20 -14 9 -41 -4 -41 -19 0 -7 -6
-18 -14 -24 -11 -9 -15 -5 -20 20 -4 19 -1 38 6 46 8 10 8 17 1 21 -13 9 -43
67 -43 85 0 8 9 26 21 41 27 34 29 102 4 139 -16 25 -17 40 -10 130 5 56 7
122 6 147 -1 25 3 64 10 88 12 44 1 86 -28 105 -6 4 -14 37 -17 75 -6 60 -17
111 -48 210 -5 19 -7 55 -2 85 4 29 8 63 9 77 1 14 5 45 9 70 5 32 3 56 -9 83
-9 21 -18 73 -21 115 -3 42 -10 96 -16 119 -9 37 -8 46 12 79 23 36 23 37 6
83 -11 31 -14 61 -10 91 3 25 -1 75 -9 113 -8 42 -10 70 -4 74 15 9 0 100 -24
143 -20 35 -21 43 -10 83 11 39 11 48 -5 72 -17 26 -17 28 1 60 12 23 15 43
11 62 -33 138 -32 239 3 299 26 43 26 64 2 106 -39 69 -58 346 -27 393 13 19
27 145 17 145 -3 0 -12 -7 -22 -16 -16 -14 -18 -14 -24 6 -4 13 0 31 11 48 10
15 18 32 17 37 -1 6 -7 60 -12 122 -6 62 -16 121 -23 132 -10 17 -9 26 10 60
22 39 22 41 6 90 -9 28 -14 57 -11 66 4 8 0 21 -8 28 -41 41 -67 118 -45 132
5 3 0 25 -15 53 -14 27 -31 89 -40 147 -9 55 -19 115 -22 133 -3 18 -1 38 5
45 22 28 23 68 2 103 l-22 34 42 48 c42 47 42 48 38 114 -2 45 -9 73 -21 86
-9 10 -17 25 -17 33 0 8 -14 26 -31 40 -30 24 -31 28 -21 59 19 53 15 133 -10
187 -16 36 -22 71 -24 143 -1 52 -8 108 -14 125 -24 62 -39 175 -33 245 5 59
2 83 -20 153 -22 67 -28 115 -37 257 -5 96 -12 192 -16 213 -4 25 -1 48 11 73
13 27 15 49 11 88 -4 29 -2 64 3 79 9 22 6 31 -14 56 -14 16 -25 34 -25 40 0
6 -4 11 -8 11 -18 0 -32 65 -22 100 6 19 9 67 8 107 -2 54 1 76 13 90 23 26
28 55 18 110 -13 68 -3 87 32 60z m-2306 -204 c0 -17 3 -29 6 -27 3 2 4 -20 1
-49 -7 -73 -34 -107 -86 -107 l-41 0 3 66 c3 50 8 67 20 72 26 9 40 27 48 56
5 20 12 26 28 24 16 -2 21 -10 21 -35z m4705 -78 c6 -17 17 -25 33 -25 17 0
28 -10 41 -37 15 -31 20 -35 25 -20 6 16 11 14 46 -17 l39 -35 -27 -10 c-56
-22 -167 8 -167 44 0 7 -7 16 -16 19 -13 5 -15 15 -10 48 10 64 21 74 36 33z
m2371 -178 c18 -13 41 -82 31 -91 -3 -3 0 -16 6 -29 6 -12 13 -35 16 -52 2
-16 14 -61 25 -100 11 -38 21 -83 21 -100 0 -16 7 -43 15 -59 8 -15 15 -40 15
-55 -1 -25 -1 -25 -13 -6 -6 11 -17 40 -23 65 -14 55 -31 100 -61 165 -12 28
-25 77 -28 110 -9 95 -16 134 -26 141 -11 6 -12 24 -1 24 4 0 14 -6 23 -13z
m155 -552 c4 -8 13 -15 21 -15 11 0 13 -7 7 -32 -10 -46 -7 -79 11 -98 8 -9
15 -29 15 -43 0 -15 8 -35 19 -46 21 -21 38 -108 23 -123 -31 -31 -79 69 -84
179 -3 50 -9 77 -21 91 -10 11 -17 35 -17 60 0 41 15 57 26 27z m847 -517 c38
-35 96 -68 110 -62 16 6 91 -62 82 -75 -8 -13 27 -80 43 -81 6 0 12 -8 12 -18
0 -24 52 -62 85 -62 23 0 25 -4 25 -40 0 -36 3 -40 24 -40 14 0 31 -7 40 -15
8 -8 25 -15 37 -15 12 0 32 -11 45 -26 22 -23 24 -33 24 -144 0 -105 2 -119
18 -122 13 -3 9 -8 -17 -22 -30 -16 -40 -17 -93 -5 -37 9 -66 22 -77 34 -9 12
-37 28 -63 35 -27 8 -48 18 -48 23 0 5 -18 26 -40 47 -44 42 -48 50 -25 50 11
0 15 11 15 40 0 29 -4 40 -15 40 -10 0 -15 -10 -15 -29 0 -29 -1 -30 -30 -19
-63 21 -90 -3 -90 -82 0 -41 18 -110 28 -110 17 0 31 -80 25 -146 -5 -68 -5
-70 31 -117 20 -26 47 -76 60 -109 12 -34 29 -65 37 -69 8 -4 39 -18 71 -33
45 -21 66 -39 105 -92 26 -36 47 -70 46 -75 -2 -4 7 -16 20 -26 12 -10 22 -25
22 -33 0 -8 9 -17 20 -18 26 -5 85 -74 67 -80 -6 -2 -12 -11 -12 -20 0 -8 3
-12 7 -9 3 4 12 -2 20 -12 7 -11 26 -21 41 -23 17 -2 28 -10 30 -23 3 -11 13
-28 24 -39 11 -10 17 -25 14 -33 -3 -8 -6 -39 -6 -69 0 -48 -3 -56 -24 -64
-13 -5 -26 -15 -30 -22 -3 -7 -5 7 -5 32 1 63 -37 146 -72 159 -22 7 -29 19
-39 63 -7 29 -20 70 -29 91 -14 34 -19 37 -54 37 -21 0 -36 3 -34 8 3 4 -17 5
-44 4 -44 -4 -52 -1 -78 27 -16 17 -36 31 -45 31 -19 0 -21 17 -3 23 7 2 -5
20 -30 45 -24 22 -43 45 -43 51 0 6 -18 11 -40 11 -22 0 -40 5 -40 10 0 6 -18
10 -40 10 l-40 0 0 41 0 40 -57 -2 c-58 -3 -58 -3 -59 27 0 27 -18 73 -34 84
-3 3 -14 31 -24 63 -17 54 -17 61 -1 109 12 38 17 94 19 217 2 157 3 169 29
224 15 32 27 68 27 81 0 14 5 26 11 28 13 4 0 55 -32 123 -36 78 -21 193 23
179 10 -3 18 -1 18 5 0 19 48 12 73 -11z m-9480 -65 c3 -5 8 -22 11 -40 6 -27
2 -37 -27 -68 l-35 -37 -7 -155 c-8 -162 -2 -263 18 -294 9 -15 8 -22 -9 -37
-14 -13 -23 -16 -30 -8 -16 17 -28 49 -30 81 -1 17 -5 48 -9 70 -11 65 -18
261 -11 298 4 19 18 47 31 61 16 17 25 39 25 59 0 18 7 43 16 55 15 21 48 30
57 15z m-41 -693 c7 -11 21 -20 30 -20 15 0 18 -9 18 -49 0 -58 -11 -90 -42
-126 -31 -36 -30 -72 2 -97 23 -18 25 -27 25 -96 1 -43 6 -111 14 -152 17
-100 16 -302 -1 -360 -11 -36 -19 -46 -39 -48 -31 -4 -52 19 -52 56 0 42 23
145 38 168 25 39 23 112 -5 144 -13 15 -20 37 -20 64 0 61 -19 168 -33 185
-16 19 -13 177 4 197 7 8 12 32 11 52 -2 42 15 102 29 102 5 0 14 -9 21 -20z
m9309 -481 c18 -18 21 -30 16 -72 -3 -32 -11 -55 -22 -63 -12 -9 -16 -21 -12
-41 4 -15 4 -22 1 -15 -3 6 -12 12 -20 12 -21 0 -64 41 -64 61 0 10 -5 19 -12
21 -14 5 -14 54 1 91 9 23 16 27 51 27 27 0 47 -7 61 -21z m-7761 -35 c0 -17
-23 -44 -37 -44 -22 0 -63 -26 -63 -40 0 -9 -9 -23 -20 -33 -15 -12 -20 -29
-20 -62 l0 -45 -39 0 c-37 0 -39 2 -45 38 -15 94 -4 147 32 160 93 32 121 40
155 41 27 1 37 -3 37 -15z m5215 -194 c9 -16 21 -30 27 -30 6 0 17 -8 24 -17
16 -21 18 -63 4 -63 -5 0 -10 -22 -10 -48 0 -48 1 -49 41 -67 l41 -19 -4 -63
c-2 -34 -1 -57 3 -51 5 7 10 10 13 7 3 -3 9 -93 12 -200 5 -153 10 -198 22
-211 19 -22 32 -23 32 -3 0 8 7 15 15 15 11 0 15 -11 15 -41 l0 -42 -52 5
c-29 3 -64 2 -79 -2 -37 -11 -38 -5 -38 229 0 120 -4 198 -11 205 -5 5 -10 16
-10 24 0 8 -6 20 -14 26 -18 14 -56 118 -65 176 -4 25 -15 60 -25 78 -12 23
-15 43 -10 65 13 63 44 75 69 27z m-6713 -489 c0 -98 -3 -135 -16 -159 -21
-40 -22 -102 -1 -102 11 0 15 -11 15 -40 0 -22 -4 -40 -10 -40 -6 0 -6 -9 0
-24 12 -34 0 -136 -17 -143 -8 -3 -17 -3 -20 1 -19 18 -45 430 -32 500 5 27 9
73 9 102 0 64 22 86 54 53 16 -18 18 -37 18 -148z m9603 -501 c4 -41 14 -92
23 -113 13 -33 13 -40 1 -48 -11 -6 -11 -11 -1 -21 6 -6 12 -22 12 -35 0 -15
6 -23 18 -23 10 0 26 -10 37 -22 l20 -23 3 43 c3 42 3 42 43 42 36 0 39 -2 39
-27 0 -18 -10 -35 -27 -49 -23 -18 -27 -28 -24 -69 1 -29 -4 -56 -13 -71 -19
-28 -21 -61 -4 -66 26 -9 -6 -28 -47 -28 l-44 0 -3 46 c-2 35 -8 50 -23 58
-11 6 -22 12 -25 14 -2 2 0 6 6 10 14 9 27 62 15 62 -5 0 -9 40 -8 90 1 77 -2
94 -20 118 -11 16 -23 48 -24 73 -2 24 -12 52 -21 61 -26 26 -24 92 4 120 l21
21 17 -44 c10 -24 21 -78 25 -119z m-2620 -60 c3 -11 10 -20 15 -20 4 0 6 -19
3 -42 -5 -30 -16 -51 -45 -80 -21 -21 -38 -44 -38 -51 0 -8 -15 -12 -47 -12
l-48 1 -6 50 c-9 74 2 94 52 94 43 0 60 12 79 58 12 27 27 28 35 2z m-6950
-194 c-16 -78 -17 -96 -6 -96 6 0 11 -20 11 -48 0 -26 5 -53 11 -59 8 -8 8
-17 0 -31 -6 -11 -11 -32 -11 -46 0 -14 -4 -26 -10 -26 -5 0 -10 -16 -10 -36
0 -40 -16 -77 -31 -69 -5 4 -9 28 -9 56 0 30 -4 49 -11 49 -8 0 -10 21 -5 73
8 87 8 80 0 143 -4 34 -2 54 5 58 6 4 11 14 11 23 0 24 29 53 47 46 11 -4 13
-14 8 -37z m6891 -159 c1 -1 6 -17 12 -34 9 -27 8 -33 -4 -33 -16 0 -19 -26
-4 -35 6 -3 10 -15 10 -26 0 -10 5 -19 10 -19 6 0 10 -18 10 -40 0 -22 5 -40
10 -40 6 0 11 -8 11 -17 1 -17 2 -17 6 -1 4 14 10 11 39 -18 22 -21 33 -41 31
-52 -3 -9 -8 -29 -11 -44 -5 -20 -13 -28 -27 -28 -20 0 -21 -4 -17 -99 3 -75
8 -103 21 -116 9 -9 17 -20 17 -25 0 -5 10 -18 21 -29 13 -12 20 -27 17 -39
-4 -15 -1 -18 18 -14 24 4 24 4 24 -87 0 -65 -4 -91 -12 -93 -7 0 -17 -2 -23
-2 -21 -3 -35 -18 -35 -37 0 -14 -7 -19 -25 -19 -17 0 -25 -6 -25 -17 0 -13
-6 -9 -20 12 -26 39 -26 75 0 82 16 4 20 14 20 44 0 22 -4 39 -10 39 -5 0 -10
8 -10 19 0 10 -7 24 -15 31 -8 7 -15 22 -15 34 0 11 -9 53 -20 91 -23 77 -20
116 11 177 17 33 18 43 7 83 -7 25 -15 45 -19 45 -4 0 -10 16 -13 35 -4 19
-18 59 -31 87 -18 39 -25 70 -25 119 0 36 3 69 7 73 6 6 55 0 59 -7z m-6841
-470 c3 -40 2 -87 -4 -106 -7 -23 -7 -48 0 -79 8 -36 7 -49 -6 -68 -18 -28
-28 -30 -51 -7 -13 14 -15 29 -10 82 3 35 10 69 16 75 5 5 10 30 10 54 0 53
19 134 30 127 5 -3 11 -38 15 -78z m6995 -572 c0 -9 7 -26 15 -39 14 -21 14
-24 0 -29 -8 -4 -15 -12 -15 -19 0 -8 -9 -22 -21 -31 -15 -14 -19 -25 -14 -46
5 -23 2 -29 -13 -33 -38 -10 -42 3 -35 110 l6 102 39 0 c27 0 38 -4 38 -15z
m350 -295 c11 -21 -2 -60 -20 -60 -6 0 -10 -7 -10 -15 0 -8 -7 -15 -15 -15
-21 0 -20 -58 2 -126 9 -30 15 -55 12 -57 -2 -3 -21 -7 -41 -10 l-38 -6 0 60
c0 46 -3 59 -15 59 -8 0 -15 4 -15 9 0 5 7 16 15 25 8 8 15 21 15 30 0 8 10
16 21 18 16 2 25 15 34 44 20 69 35 81 55 44z m-190 -314 c0 -8 5 -16 11 -18
11 -4 -67 -88 -82 -88 -5 0 -9 -6 -9 -14 0 -8 -9 -17 -19 -21 -11 -3 -22 -12
-25 -20 -10 -28 -31 -15 -53 33 -27 56 -27 60 -8 82 12 13 25 15 65 10 51 -7
61 -2 73 33 8 20 47 23 47 3z m59 -350 c1 -63 0 -65 -27 -68 l-27 -3 34 -19
c31 -16 35 -16 50 -2 13 14 13 20 3 36 -10 17 -10 21 0 25 75 26 110 35 118
30 20 -12 9 -37 -20 -48 -29 -11 -30 -13 -30 -75 l0 -64 -36 6 c-19 4 -42 10
-49 12 -18 7 -58 -34 -51 -52 3 -8 -1 -14 -9 -14 -8 0 -15 -13 -18 -32 -4 -29
-4 -28 -3 5 1 35 0 37 -28 37 l-29 0 7 -60 c10 -94 15 -187 10 -162 -3 12 -10
22 -15 22 -5 0 -9 7 -9 16 0 8 -5 12 -11 9 -5 -4 -19 1 -30 11 -14 12 -18 29
-17 63 2 66 -12 190 -23 197 -16 9 -10 29 21 64 17 19 35 40 41 45 6 6 26 24
44 42 31 30 51 39 86 42 14 1 17 -10 18 -63z m3120 -629 c12 -24 21 -51 21
-60 0 -9 7 -17 15 -17 20 0 20 -69 0 -96 -13 -17 -14 -17 -15 -1 0 9 -7 17
-16 17 -12 0 -15 -9 -13 -43 3 -52 -3 -63 -38 -70 -16 -3 -35 -8 -44 -12 -13
-5 -18 3 -23 35 -6 41 8 121 22 118 12 -2 60 20 67 33 4 6 3 14 -2 18 -11 7
-14 121 -3 121 5 0 18 -19 29 -43z m-3069 -127 c6 -10 8 -25 5 -32 -21 -59
-27 -71 -33 -62 -4 5 -24 15 -44 21 l-38 11 0 -100 0 -101 44 -43 c24 -24 50
-44 59 -44 29 0 30 -34 0 -58 -15 -12 -34 -27 -40 -33 -17 -13 -26 -54 -19
-83 5 -19 11 -23 28 -18 13 3 27 11 31 19 4 7 14 13 22 13 7 0 15 5 17 12 4
11 36 0 37 -12 0 -3 3 -13 6 -22 7 -18 -26 -58 -47 -58 -7 0 -23 -18 -35 -40
-16 -31 -18 -40 -7 -40 20 0 19 -69 -1 -76 -8 -4 -15 -17 -15 -31 0 -13 -5
-34 -11 -46 -9 -16 -9 -22 0 -25 6 -2 11 -12 11 -22 0 -21 -41 -35 -52 -17 -6
10 -11 60 -7 70 1 1 -13 26 -30 55 -36 61 -38 84 -12 120 10 15 21 41 24 57 3
17 8 40 12 52 6 17 -1 30 -34 61 -44 41 -48 56 -29 97 9 19 8 34 -2 65 -7 22
-17 40 -21 40 -4 0 1 21 13 46 19 44 19 48 4 89 -14 36 -15 50 -5 89 13 51 19
59 44 50 10 -4 15 -14 12 -25 -8 -32 11 -31 28 0 26 51 64 60 85 21z m3339
-710 c24 -22 50 -40 57 -40 10 0 14 -13 14 -40 0 -39 -1 -40 -35 -40 -29 0
-44 9 -79 43 -24 24 -46 50 -48 58 -5 13 28 59 41 59 3 0 26 -18 50 -40z
m-3361 -242 c19 -25 52 -89 52 -103 0 -10 11 -15 35 -15 34 0 35 -1 35 -38 0
-21 7 -47 15 -58 10 -14 14 -47 15 -121 0 -62 4 -103 10 -103 15 0 12 -78 -2
-83 -10 -3 -9 -8 2 -22 11 -14 15 -45 15 -129 0 -87 4 -116 17 -135 15 -21 15
-26 2 -38 -8 -8 -14 -26 -14 -39 0 -14 -7 -32 -15 -40 -8 -9 -15 -26 -15 -40
0 -19 -5 -24 -25 -24 -32 0 -34 9 -39 200 -3 85 -6 166 -6 180 0 14 0 53 0 87
2 79 -5 101 -35 109 -44 11 -48 26 -36 113 10 68 9 89 -4 143 -9 35 -25 72
-36 84 -19 20 -26 64 -12 77 10 11 30 8 41 -5z m-2968 -447 c0 -5 17 -13 38
-18 32 -8 37 -13 40 -41 l3 -32 -80 0 c-45 0 -81 4 -81 9 0 6 -15 11 -32 13
l-33 3 35 37 c28 29 43 37 73 37 20 1 37 -3 37 -8z m6274 -132 c9 -93 8 -99
-14 -99 -17 0 -20 -7 -20 -42 l0 -41 -24 22 c-19 18 -25 37 -31 97 -7 81 -4
94 20 74 13 -11 17 -8 28 19 18 49 33 37 41 -30z m-4104 -1044 c9 -10 9 -15 1
-15 -6 0 -11 -6 -11 -14 0 -10 22 -16 76 -21 52 -5 83 -13 96 -25 19 -17 19
-18 -4 -24 -13 -3 -38 -6 -55 -6 -18 0 -33 -4 -33 -10 0 -5 -18 -10 -40 -10
-39 0 -40 -1 -40 -34 l0 -34 80 -7 c44 -4 80 -11 80 -15 0 -5 9 -12 20 -15 11
-3 20 -11 20 -16 0 -5 -9 -9 -20 -9 -11 0 -20 -4 -20 -10 0 -5 -18 -10 -40
-10 -33 0 -40 3 -40 20 0 16 -7 20 -37 20 -30 1 -44 8 -63 30 -13 17 -32 30
-42 30 -14 0 -18 8 -18 40 0 39 -1 40 -35 40 -33 0 -105 27 -105 40 0 13 72
40 105 40 24 0 35 5 35 15 0 11 11 15 39 15 22 0 44 -6 51 -15z"/>
<path d="M23040 20471 c0 -5 -84 -11 -187 -14 -231 -6 -432 -24 -451 -39 -8
-7 -55 -14 -105 -16 -51 -3 -95 -9 -99 -15 -16 -26 -198 -27 -198 -1 0 8 -7
14 -16 14 -8 0 -22 7 -30 15 -18 17 -34 20 -34 4 0 -5 -5 -7 -11 -4 -6 4 -13
-2 -16 -14 -7 -26 -21 -30 -108 -32 -72 -2 -105 -12 -105 -30 0 -6 -10 -19
-22 -29 -28 -23 -83 -18 -106 9 -30 34 -65 34 -100 0 -33 -32 -40 -53 -22 -64
12 -8 13 -45 2 -45 -14 0 -52 36 -52 49 0 6 -16 11 -35 11 -32 0 -35 3 -35 29
0 16 -6 34 -14 40 -21 18 -38 -11 -34 -61 3 -37 6 -43 23 -40 16 3 18 1 8 -9
-7 -7 -13 -31 -13 -53 0 -31 -3 -37 -12 -28 -7 7 -24 12 -38 12 -14 0 -30 4
-36 9 -13 13 -74 24 -74 14 0 -4 -18 -19 -40 -33 -42 -25 -52 -56 -22 -67 20
-8 32 -23 32 -41 0 -24 -26 -23 -76 5 l-49 28 30 5 30 5 -37 37 c-22 23 -50
39 -72 43 l-36 7 0 -46 c0 -25 5 -46 10 -46 6 0 10 -18 10 -41 0 -31 -3 -40
-14 -36 -10 4 -12 0 -9 -14 5 -18 -1 -19 -74 -19 -67 0 -83 -3 -102 -21 -16
-15 -19 -24 -12 -29 8 -5 6 -14 -7 -30 -16 -20 -27 -23 -71 -21 -50 2 -51 1
-51 -26 -1 -37 -51 -63 -123 -63 -65 0 -78 -11 -66 -53 15 -52 11 -78 -16 -99
-21 -16 -23 -23 -14 -40 6 -11 26 -26 44 -34 39 -16 47 -26 55 -74 l5 -35 65
-3 c77 -4 94 -16 109 -80 18 -77 15 -424 -3 -499 -8 -32 -8 -33 23 -33 27 0
31 -4 31 -25 0 -15 -7 -40 -16 -56 -9 -18 -12 -38 -8 -47 9 -20 21 -130 32
-302 9 -120 26 -192 57 -230 25 -31 38 -92 31 -156 -8 -82 1 -142 26 -155 22
-12 58 -3 58 14 0 55 164 116 198 75 5 -7 14 -41 20 -75 6 -33 20 -79 31 -102
25 -48 26 -70 5 -114 -14 -29 -14 -37 -2 -68 8 -20 11 -46 7 -64 -4 -16 -7
-57 -8 -91 -1 -58 -23 -140 -57 -212 -13 -27 -15 -63 -12 -180 3 -130 6 -151
25 -184 17 -28 21 -52 21 -100 -2 -51 5 -77 31 -138 32 -73 33 -83 15 -152
-10 -42 3 -76 45 -116 31 -29 45 -55 65 -119 14 -45 26 -95 26 -111 0 -16 7
-47 16 -68 13 -31 15 -55 9 -114 -4 -41 -8 -118 -9 -170 l-2 -95 47 2 c48 1
55 -5 73 -59 3 -11 15 -18 31 -18 16 0 39 -13 61 -35 25 -25 44 -35 67 -35 64
0 77 -9 77 -51 0 -22 5 -39 10 -39 6 0 10 -33 10 -80 0 -64 3 -80 15 -80 11 0
15 -12 15 -45 0 -44 4 -50 71 -116 51 -51 68 -73 59 -79 -10 -6 -8 -12 9 -26
11 -10 21 -26 21 -36 0 -13 8 -18 25 -18 22 0 25 -4 25 -39 0 -22 6 -44 15
-51 10 -9 15 -9 15 -1 0 6 16 11 35 11 28 0 44 -8 72 -36 26 -26 32 -38 23
-44 -10 -6 -8 -12 9 -26 11 -10 21 -26 21 -36 0 -13 8 -18 25 -18 27 0 104
-44 106 -60 1 -6 2 -15 3 -21 1 -13 68 -39 108 -43 48 -5 78 -32 78 -71 0 -29
9 -44 45 -80 36 -36 51 -45 80 -45 19 0 35 -4 35 -9 0 -15 90 -40 173 -47 43
-4 80 -11 83 -15 3 -5 13 -9 23 -9 10 0 33 -18 51 -40 18 -22 40 -40 48 -40
26 0 126 -54 149 -80 18 -20 24 -22 32 -11 7 11 16 6 45 -22 20 -20 36 -43 36
-50 0 -8 26 -23 63 -36 106 -38 153 -65 195 -114 14 -15 38 -35 56 -44 17 -9
35 -22 39 -29 4 -8 16 -14 26 -14 19 0 134 -59 139 -72 2 -4 15 -8 28 -8 15 0
39 -14 59 -35 30 -29 35 -41 35 -80 0 -41 2 -45 25 -45 22 0 25 -4 25 -37 0
-52 61 -123 105 -123 29 0 142 -38 198 -66 16 -8 38 -14 50 -14 12 0 30 -7 40
-15 10 -7 41 -19 68 -25 l49 -12 0 -43 c0 -26 6 -47 15 -55 9 -7 15 -29 15
-51 0 -35 3 -39 24 -39 13 0 26 5 28 10 2 6 13 2 24 -9 12 -11 45 -31 73 -46
29 -14 54 -32 58 -40 3 -8 29 -22 58 -31 29 -8 59 -21 65 -29 7 -8 18 -15 25
-15 7 0 45 -18 85 -40 40 -22 80 -40 90 -40 18 0 41 -39 46 -79 1 -14 10 -28
18 -33 9 -5 16 -18 16 -28 0 -12 7 -20 16 -20 19 0 64 -40 64 -57 0 -6 9 -14
19 -18 24 -7 17 -32 -10 -40 -35 -11 -59 -47 -59 -87 0 -34 3 -38 25 -38 14 0
25 -4 25 -9 0 -5 21 -17 48 -27 26 -10 54 -23 63 -31 8 -7 23 -13 31 -13 9 0
18 -4 20 -9 2 -5 31 -23 66 -40 60 -30 62 -32 62 -71 0 -21 -4 -42 -10 -45
-21 -13 -8 -34 28 -45 20 -7 41 -16 47 -21 5 -5 17 -9 26 -9 10 0 19 -5 21
-10 2 -6 20 -13 41 -17 l37 -6 0 1417 c0 1269 -2 1416 -15 1416 -9 0 -40 18
-70 40 -30 22 -59 40 -65 40 -5 0 -10 4 -10 10 0 5 -18 15 -40 21 -22 7 -40
18 -40 24 0 7 -25 30 -55 50 -30 21 -55 42 -55 47 0 4 -9 8 -20 8 -11 0 -23 7
-27 16 -7 20 -41 54 -88 90 -19 14 -35 32 -35 39 0 7 -19 22 -42 33 -24 11
-52 31 -64 43 -37 42 -153 149 -161 149 -11 0 -100 79 -166 148 -17 18 -37 30
-43 28 -12 -4 -44 23 -44 37 0 14 -130 137 -145 137 -8 0 -15 7 -15 15 0 8 -7
15 -15 15 -22 0 -87 43 -132 87 -22 21 -51 44 -66 52 -15 8 -51 40 -81 70 -29
31 -70 69 -92 85 -38 28 -52 41 -160 143 -28 26 -86 80 -129 118 -163 146
-207 191 -247 249 -22 33 -51 71 -64 85 -13 14 -24 29 -24 33 0 4 -18 26 -41
50 -41 44 -88 116 -126 198 -12 25 -30 55 -42 67 -41 43 -111 163 -141 240
-28 71 -40 112 -87 288 -12 43 -16 101 -15 205 1 124 -2 154 -20 205 -12 33
-29 71 -37 85 -24 38 -101 203 -101 216 0 4 -44 98 -99 208 -54 111 -109 228
-121 261 -13 33 -26 62 -29 65 -18 15 -71 124 -71 145 0 8 -4 15 -10 15 -5 0
-13 18 -16 40 -4 24 -12 40 -20 40 -8 0 -14 6 -14 14 0 7 -7 27 -15 42 -8 16
-15 43 -15 61 0 17 -4 35 -10 38 -5 3 -10 24 -10 46 0 27 -4 39 -14 39 -8 0
-16 -3 -19 -7 -2 -5 -2 -2 0 5 1 8 3 29 3 48 0 29 3 34 25 34 14 0 38 13 56
31 28 28 32 38 30 78 -1 39 2 47 21 56 15 6 24 20 26 39 3 27 61 96 81 96 6 0
26 -8 46 -17 25 -12 35 -23 35 -39 0 -22 52 -84 71 -84 5 0 9 -3 9 -8 0 -4 17
-16 37 -27 20 -11 55 -38 78 -60 22 -22 52 -49 65 -61 14 -12 33 -35 42 -53 9
-17 24 -31 33 -31 9 0 23 -7 31 -15 19 -19 34 -19 34 -1 0 8 10 16 23 18 l22
3 -22 20 c-13 11 -23 27 -23 37 0 10 -7 18 -15 18 -11 0 -15 11 -15 40 0 29 4
40 15 40 8 0 15 -4 15 -8 0 -5 18 -17 40 -27 22 -10 40 -24 40 -32 0 -9 16
-13 55 -13 l55 0 0 40 c0 33 3 40 19 40 11 0 28 3 38 6 14 5 15 4 4 -4 -12 -8
-7 -18 27 -50 23 -22 42 -45 42 -51 0 -6 18 -11 40 -11 29 0 40 4 40 15 0 8
-8 15 -18 15 -17 0 -62 71 -62 98 0 6 -6 12 -14 12 -19 0 -26 22 -26 81 0 49
0 49 33 49 28 0 36 -5 50 -35 9 -20 17 -42 17 -50 0 -15 35 -30 50 -20 16 10
12 82 -6 100 -9 8 -19 34 -22 58 -4 31 -15 51 -44 79 -30 29 -38 44 -38 72 0
35 -1 36 -40 36 l-40 0 0 40 0 40 40 0 40 0 0 40 0 40 -80 0 -80 0 0 120 c0
100 -2 120 -15 120 -11 0 -15 11 -15 40 l0 40 -65 0 c-36 0 -65 -4 -65 -9z"/>
<path d="M4176 18845 c-16 -8 -45 -31 -64 -50 -20 -19 -46 -38 -57 -41 -76
-24 -107 -184 -69 -362 2 -12 16 -27 29 -32 39 -15 32 -40 -10 -40 -20 0 -47
-8 -61 -17 -26 -16 -26 -18 -19 -97 7 -86 22 -126 57 -150 29 -21 29 -71 0
-92 -12 -8 -22 -25 -22 -38 0 -31 20 -86 31 -86 5 0 9 -18 9 -40 0 -47 26 -56
36 -12 19 83 27 103 54 129 35 33 36 41 10 95 -11 23 -20 47 -20 54 0 7 -4 14
-10 16 -10 3 -14 96 -7 158 2 19 4 43 5 52 2 15 4 15 34 1 17 -9 47 -16 67
-17 32 -1 36 2 39 26 3 24 -20 85 -37 98 -8 7 -31 58 -31 70 0 6 6 10 14 10 9
0 21 32 36 95 23 104 21 118 -25 129 -14 4 -25 13 -25 21 0 18 20 57 35 67 6
5 5 8 -2 8 -23 0 -14 15 10 16 45 2 72 11 72 25 0 20 -45 22 -79 4z"/>
<path d="M5140 18749 c0 -5 13 -22 29 -37 59 -56 63 -69 62 -219 0 -76 -4
-173 -10 -216 -12 -106 -5 -127 52 -154 26 -13 47 -27 47 -33 0 -5 6 -10 13
-10 6 0 25 -14 41 -30 21 -22 31 -45 38 -87 5 -31 13 -62 19 -69 6 -7 6 -21 1
-35 -5 -13 -13 -70 -16 -127 l-8 -102 36 -32 c19 -17 38 -45 42 -62 9 -41 22
-56 50 -56 20 0 24 5 24 30 0 37 -27 93 -40 85 -6 -3 -7 1 -4 10 4 9 2 26 -4
38 -25 52 -29 84 -19 140 10 57 -3 137 -22 137 -5 0 -6 11 -3 25 8 46 -7 91
-45 129 -20 20 -40 36 -45 36 -14 0 -49 34 -65 65 -9 16 -21 56 -28 88 -11 52
-10 62 7 93 22 42 23 63 2 93 -15 21 -15 25 2 56 16 31 17 35 1 77 -9 24 -17
52 -17 62 0 21 -37 76 -52 76 -5 0 -21 9 -35 20 -28 22 -53 26 -53 9z"/>
<path d="M7530 18129 c-33 -13 -80 -58 -91 -88 -30 -77 65 -94 111 -19 19 32
29 119 13 117 -5 0 -19 -5 -33 -10z"/>
<path d="M6080 17710 c0 -17 7 -20 43 -21 28 -1 33 -3 15 -6 -23 -4 -27 -9
-30 -51 -3 -28 1 -58 9 -74 15 -32 18 -118 3 -118 -5 0 -10 -18 -10 -40 l0
-40 71 0 71 0 -4 95 -4 96 49 -2 c42 -2 53 1 69 22 l20 24 -23 5 c-13 3 -28
16 -34 28 -8 17 -18 22 -47 22 -36 0 -38 2 -38 30 0 28 -2 30 -40 30 -22 0
-40 5 -40 10 0 6 -18 10 -40 10 -33 0 -40 -3 -40 -20z"/>
<path d="M6000 17600 l0 -80 -40 0 -40 0 0 -40 0 -40 55 0 55 0 0 80 c0 79 0
80 25 80 23 0 25 4 25 40 l0 40 -40 0 -40 0 0 -80z"/>
<path d="M3600 17526 c0 -11 10 -30 21 -43 14 -14 24 -40 27 -71 6 -69 28 -81
78 -42 20 17 43 30 50 30 31 0 7 59 -29 73 -11 4 -21 16 -24 26 -5 20 -25 30
-85 41 -34 6 -38 4 -38 -14z"/>
<path d="M6456 17418 c-12 -17 -16 -49 -16 -133 0 -106 1 -113 30 -158 34 -54
53 -65 76 -46 12 10 14 24 9 66 -6 48 -5 53 13 53 28 0 37 31 15 50 -23 20
-66 97 -59 108 3 5 0 25 -6 45 -13 43 -39 49 -62 15z"/>
<path d="M7726 16855 c-20 -19 -40 -35 -47 -35 -6 0 -24 14 -40 31 l-28 30
-36 -35 c-19 -19 -35 -40 -35 -46 0 -19 69 -80 90 -80 17 0 20 -6 20 -40 0
-29 4 -40 15 -40 11 0 15 -11 15 -40 l0 -40 40 0 40 0 0 -40 0 -40 -40 0 c-27
0 -40 -4 -40 -13 0 -8 -18 -22 -40 -32 -43 -19 -47 -27 -52 -94 -3 -38 0 -44
17 -47 11 -2 29 -14 40 -28 17 -21 29 -26 67 -26 28 0 48 -5 51 -12 2 -7 11 1
20 19 10 18 26 37 37 43 18 9 20 8 20 -15 0 -32 73 -110 78 -83 2 9 14 19 27
22 13 3 30 9 39 12 28 11 20 -41 -9 -56 -20 -11 -25 -21 -25 -52 0 -27 -4 -38
-15 -38 -8 0 -15 7 -15 15 0 11 -11 15 -40 15 -29 0 -40 -4 -40 -15 0 -9 -9
-15 -25 -15 -25 0 -25 -1 -25 -80 l0 -80 65 0 c62 0 65 1 65 24 0 14 5 28 10
31 6 3 10 21 10 39 0 18 3 35 6 39 6 6 66 -32 72 -45 2 -5 9 -8 15 -8 12 0 34
-51 44 -102 5 -25 10 -28 44 -28 28 0 39 -4 39 -15 0 -8 -8 -15 -17 -15 -11 0
-27 -17 -40 -40 -12 -22 -17 -40 -11 -40 6 0 19 -11 30 -25 18 -23 25 -25 109
-25 83 0 89 -1 89 -21 0 -25 86 -111 129 -129 17 -7 31 -19 31 -26 0 -8 6 -14
13 -14 8 0 22 -18 32 -40 10 -22 22 -40 27 -40 4 0 8 -7 8 -15 0 -11 11 -15
40 -15 36 0 40 -2 40 -25 0 -24 2 -25 65 -25 l65 0 0 -40 c0 -29 4 -40 15 -40
8 0 15 -7 15 -15 0 -11 11 -15 40 -15 22 0 40 -4 40 -10 0 -5 18 -10 40 -10
22 0 40 5 40 10 0 6 18 10 40 10 29 0 40 4 40 15 0 12 16 15 80 15 l80 0 0 30
c0 19 7 34 20 42 14 9 20 24 20 47 0 37 22 60 58 61 32 0 28 25 -24 135 -35
76 -50 158 -41 225 6 42 5 81 -2 110 -12 52 -15 184 -5 252 7 53 -4 70 -68
103 -36 18 -38 22 -38 67 0 27 -4 48 -10 48 -5 0 -10 18 -10 40 0 22 4 40 9
40 5 0 0 18 -12 40 -13 23 -29 40 -39 40 -10 0 -18 6 -18 14 0 9 -20 15 -61
20 -93 9 -99 8 -99 -14 0 -11 -5 -20 -11 -20 -8 0 -7 -5 1 -16 11 -13 9 -19
-14 -42 l-27 -27 -29 34 c-17 18 -30 37 -30 41 0 4 -12 19 -26 34 -20 19 -37
26 -65 26 -53 0 -54 27 -1 32 l37 3 -37 20 c-23 11 -38 26 -38 37 0 11 -7 18
-18 18 -10 0 -26 10 -37 23 l-20 22 -3 -22 c-3 -22 -8 -23 -83 -23 -64 0 -79
-3 -79 -15 0 -11 -11 -15 -40 -15 -29 0 -40 4 -40 15 0 8 -7 15 -15 15 -11 0
-15 -11 -15 -40 0 -36 -2 -40 -25 -40 -16 0 -25 -6 -25 -15 0 -11 -11 -15 -40
-15 -36 0 -40 -2 -40 -25 0 -22 -4 -25 -40 -25 -40 0 -40 0 -40 -39 0 -22 5
-41 12 -43 9 -3 9 -6 0 -12 -7 -4 -12 -2 -12 3 0 6 -16 11 -35 11 -29 0 -44 9
-80 45 -25 24 -45 49 -45 55 0 5 18 10 40 10 l40 0 0 40 0 40 -40 0 c-30 0
-47 7 -65 25 -22 21 -25 33 -25 103 0 74 -2 80 -22 86 -54 14 -87 7 -122 -29z"/>
<path d="M5216 16625 c-17 -13 -15 -18 48 -80 36 -36 66 -74 66 -85 0 -10 7
-31 14 -47 8 -15 17 -36 20 -45 7 -23 52 -34 71 -18 19 16 19 37 0 74 -8 15
-15 34 -15 42 0 7 -13 29 -30 47 -16 19 -30 44 -30 55 0 12 -11 33 -25 47 -30
29 -87 34 -119 10z"/>
<path d="M6724 16612 c-30 -38 -37 -81 -19 -116 8 -15 15 -34 15 -41 0 -7 7
-15 15 -19 8 -3 15 -12 15 -21 0 -8 6 -15 13 -15 18 0 41 109 32 151 -9 40
-32 89 -43 88 -4 0 -17 -12 -28 -27z"/>
<path d="M5575 16260 c-5 -8 -1 -16 9 -22 9 -5 16 -18 16 -28 0 -11 6 -20 13
-20 15 0 67 -54 67 -70 0 -5 6 -10 14 -10 20 0 140 -135 151 -170 4 -11 11
-20 16 -20 5 0 9 -5 9 -11 0 -5 17 -30 37 -55 43 -51 77 -58 95 -20 9 20 7 31
-10 58 -12 18 -35 57 -53 86 -17 28 -34 52 -39 52 -4 0 -30 20 -58 45 -28 26
-56 43 -64 40 -19 -7 -37 29 -40 80 -3 34 -7 41 -28 44 -14 1 -28 8 -31 13
-10 16 -95 22 -104 8z"/>
<path d="M8198 14507 c-31 -7 -38 -14 -38 -32 0 -22 -3 -23 -37 -18 -21 3 -41
10 -44 16 -9 13 -79 -11 -79 -28 0 -8 4 -17 10 -20 5 -3 20 -28 32 -55 13 -28
26 -50 30 -50 5 0 8 -13 8 -30 0 -16 5 -50 12 -75 10 -38 10 -48 -1 -54 -9 -6
4 -17 43 -36 47 -23 57 -33 66 -64 5 -20 10 -46 10 -58 0 -12 6 -28 13 -35 7
-7 25 -39 40 -70 15 -32 33 -58 41 -58 8 0 17 -9 21 -20 3 -11 24 -38 46 -61
33 -35 42 -39 55 -28 19 15 13 45 -22 112 -16 32 -29 82 -38 151 -14 105 -22
131 -53 162 -16 16 -18 36 -15 175 1 116 -1 159 -10 166 -21 17 -51 20 -90 10z"/>
<path d="M8770 14490 c0 -11 7 -23 15 -26 8 -4 15 -10 15 -15 0 -10 37 -49 46
-49 15 0 33 -37 34 -67 0 -17 8 -45 18 -62 15 -27 23 -31 59 -31 40 0 43 -2
53 -38 9 -34 14 -39 39 -40 26 -1 33 6 52 46 13 26 29 51 36 55 7 4 22 26 33
48 11 21 25 39 30 39 6 0 19 9 29 19 15 15 17 27 12 52 -7 37 -41 55 -41 22 0
-21 -72 -72 -78 -54 -2 6 -10 11 -18 11 -8 0 -25 7 -38 15 -21 14 -25 14 -39
0 -29 -28 -72 -19 -115 25 -21 22 -48 40 -59 40 -12 0 -23 7 -27 15 -3 8 -17
15 -31 15 -18 0 -25 -5 -25 -20z"/>
<path d="M9440 14230 c0 -5 -10 -10 -22 -12 -17 -2 -24 -11 -26 -30 -2 -16 -9
-28 -15 -28 -6 0 -1 -7 11 -16 14 -9 58 -19 107 -23 47 -5 91 -13 99 -20 11
-9 15 -7 20 11 9 36 7 48 -9 48 -8 0 -15 7 -15 15 0 24 -40 57 -61 52 -10 -3
-34 -1 -54 3 -19 4 -35 4 -35 0z"/>
<path d="M188 4273 c-3 -40 0 -52 20 -72 18 -17 26 -21 32 -12 6 10 16 10 51
0 24 -7 49 -16 55 -21 6 -4 39 -11 73 -14 33 -4 61 -10 61 -14 0 -4 30 -10 68
-13 175 -17 321 -42 332 -58 3 -4 40 -10 83 -14 l77 -7 0 41 0 41 -40 0 c-29
0 -40 4 -40 15 0 11 -11 15 -39 15 -33 0 -40 -4 -44 -22 -3 -20 -5 -19 -12 9
-4 17 -17 40 -29 51 -23 21 -25 22 -221 48 -71 10 -132 20 -135 24 -13 17 -80
30 -156 30 -49 0 -84 4 -84 10 0 6 -11 10 -24 10 -21 0 -24 -5 -28 -47z"/>
<path d="M0 3925 c0 -22 4 -25 40 -25 28 0 40 -4 40 -14 0 -10 22 -16 80 -21
55 -5 80 -11 80 -20 0 -10 11 -12 41 -8 38 6 119 -13 119 -27 0 -17 79 -43
130 -42 74 1 110 15 110 44 -1 38 -73 68 -165 68 -43 0 -75 4 -75 10 0 6 -18
10 -40 10 -22 0 -40 5 -40 10 0 6 -36 10 -89 10 -56 0 -102 5 -124 15 -20 8
-52 15 -72 15 -31 0 -35 -3 -35 -25z"/>
<path d="M1150 3705 c-10 -12 -10 -18 0 -30 22 -27 5 -46 -37 -41 -21 3 -81 8
-133 11 -92 5 -95 5 -106 -18 -15 -33 0 -43 82 -51 89 -9 164 -26 164 -37 0
-5 18 -9 40 -9 32 0 40 -4 40 -19 0 -15 11 -19 61 -25 34 -3 88 -6 120 -6 52
0 59 -2 59 -20 0 -17 7 -20 53 -20 72 0 107 17 107 53 0 20 -8 32 -32 47 -41
25 -48 25 -48 0 0 -17 -7 -20 -40 -20 -29 0 -40 4 -40 15 0 13 -10 16 -48 14
-53 -3 -67 3 -82 30 -8 17 -2 21 60 37 39 10 70 21 70 25 0 5 -12 21 -27 36
-23 22 -41 29 -93 35 -106 12 -156 10 -170 -7z"/>
<path d="M2 3678 c3 -28 8 -32 53 -45 28 -8 54 -19 59 -24 6 -5 18 -9 28 -9
10 0 18 -7 18 -15 0 -11 11 -15 40 -15 29 0 40 4 40 15 0 8 9 15 20 15 23 0
24 6 6 39 -12 22 -19 24 -74 22 -55 -2 -62 0 -77 23 -15 22 -25 26 -67 26
l-49 0 3 -32z"/>
<path d="M2480 3375 c0 -8 -7 -15 -15 -15 -11 0 -15 -11 -15 -39 l0 -40 55 6
c54 6 55 5 55 -21 0 -26 0 -26 79 -26 54 0 81 -4 83 -12 3 -8 15 -1 34 17 l29
30 -30 3 c-16 2 -32 7 -35 11 -11 15 -121 71 -140 71 -11 0 -20 7 -20 15 0 11
-11 15 -40 15 -29 0 -40 -4 -40 -15z"/>
<path d="M242 3358 c4 -30 60 -46 161 -47 61 -1 77 -4 77 -16 0 -12 14 -15 70
-15 39 0 70 2 70 5 0 3 -16 21 -35 40 l-34 35 -140 0 c-82 0 -142 4 -146 10
-11 18 -26 10 -23 -12z"/>
<path d="M2034 3266 c-8 -22 0 -29 35 -32 47 -3 91 -15 91 -25 0 -5 9 -9 20
-9 11 0 20 -4 20 -9 0 -20 59 -33 125 -26 41 5 70 4 74 -2 3 -6 59 -13 124
-17 113 -6 117 -5 117 14 0 17 -7 20 -40 20 -36 0 -40 3 -40 25 0 23 -4 25
-40 25 -22 0 -40 5 -40 10 0 6 -46 10 -119 10 -68 0 -121 4 -123 10 -1 5 -47
12 -100 16 -86 6 -98 5 -104 -10z"/>
<path d="M1343 3188 c-28 -14 -29 -28 -3 -35 11 -3 20 -12 20 -19 0 -11 30
-14 159 -14 109 0 161 -4 163 -11 3 -8 15 -9 38 -4 23 5 30 10 20 14 -28 11
-60 45 -60 63 0 14 -8 18 -40 18 -22 0 -40 -4 -40 -10 0 -5 -18 -10 -40 -10
-22 0 -40 5 -40 10 0 14 -149 12 -177 -2z"/>
<path d="M1760 3095 c0 -18 5 -25 19 -25 11 0 27 -8 37 -17 13 -13 19 -14 22
-5 4 14 82 17 82 2 0 -5 18 -10 40 -10 22 0 40 -4 40 -10 0 -5 15 -10 33 -11
68 -1 169 -25 182 -42 7 -9 17 -17 23 -17 16 0 82 32 82 40 0 4 -18 15 -40 25
-22 10 -40 24 -40 31 0 7 -15 16 -32 19 -18 4 -37 10 -43 14 -41 25 -238 43
-247 23 -1 -5 -29 -12 -60 -15 -43 -6 -60 -4 -72 8 -20 21 -26 19 -26 -10z"/>
<path d="M1662 2770 c-20 -8 -21 -12 -10 -30 7 -11 17 -19 23 -18 19 3 85 -14
85 -22 0 -4 23 -10 52 -12 37 -4 57 -12 69 -27 15 -18 28 -21 97 -21 65 0 87
-4 123 -24 32 -18 68 -26 132 -31 48 -4 87 -11 87 -16 0 -5 18 -9 40 -9 29 0
40 4 40 15 0 8 4 15 9 15 5 0 4 11 -2 25 -11 23 -17 25 -89 25 -43 0 -78 4
-78 10 0 5 -17 14 -37 19 -53 14 -269 35 -281 27 -17 -10 -40 4 -46 28 -5 19
-16 25 -78 35 -40 7 -82 14 -93 16 -11 3 -30 0 -43 -5z"/>
<path d="M0 2106 l0 -323 317 1 c245 1 317 -2 320 -11 3 -7 15 -13 28 -13 13
0 26 -4 29 -8 3 -5 61 -12 128 -15 68 -4 148 -13 178 -22 30 -8 81 -15 112
-15 31 0 59 -4 62 -9 3 -4 54 -11 113 -14 60 -4 152 -9 207 -13 72 -5 100 -4
106 5 5 10 18 8 51 -7 73 -33 158 -50 314 -63 55 -4 134 -13 175 -18 41 -6
109 -13 150 -16 86 -7 181 -24 194 -37 6 -4 43 -8 83 -8 42 0 73 -4 73 -10 0
-6 43 -10 109 -10 70 0 147 -8 217 -21 59 -12 122 -19 140 -16 21 4 45 -1 70
-15 24 -13 70 -23 129 -28 50 -5 104 -14 119 -20 15 -5 61 -10 102 -10 41 0
74 -4 74 -9 0 -5 24 -16 53 -24 46 -14 101 -21 267 -32 75 -6 184 -26 195 -36
13 -13 109 -11 140 3 29 13 28 32 -1 34 -74 4 -123 18 -150 43 -42 39 -85 51
-187 51 -99 0 -153 14 -160 41 -3 11 -19 19 -48 24 -24 4 -57 15 -73 24 -22
12 -30 13 -33 4 -8 -23 -112 -10 -192 24 -19 8 -82 17 -140 20 -58 3 -136 14
-172 24 -36 10 -83 19 -103 19 -20 0 -36 4 -36 9 0 5 -87 11 -192 14 -200 5
-288 18 -288 43 0 10 -12 14 -40 14 -29 0 -40 4 -40 15 0 11 -11 15 -40 15
-29 0 -40 -4 -40 -15 0 -11 -11 -15 -40 -15 -26 0 -40 4 -40 13 0 19 -71 52
-80 37 -9 -14 -160 -3 -160 11 0 5 -18 9 -40 9 -22 0 -40 -4 -40 -10 0 -6 -31
-10 -74 -10 -56 0 -75 4 -80 15 -3 10 -19 15 -46 15 -29 0 -40 4 -40 15 0 12
-16 15 -80 15 -79 0 -80 0 -80 25 0 23 -4 25 -40 25 -29 0 -40 -4 -40 -15 0
-11 -11 -15 -40 -15 -36 0 -40 -2 -40 -25 0 -25 -1 -25 -80 -25 -79 0 -80 0
-80 25 0 25 -1 25 -80 25 -64 0 -80 3 -80 15 0 11 11 15 40 15 l40 0 0 40 0
40 -80 0 -80 0 0 40 c0 28 -4 40 -14 40 -23 0 -26 90 -4 109 10 9 18 23 18 33
0 10 7 18 16 18 12 0 14 9 12 43 l-3 42 -62 -3 c-44 -3 -68 1 -86 13 -39 25
-168 53 -302 65 -66 6 -154 20 -195 30 -72 17 -132 29 -189 35 -60 7 -107 19
-119 32 -7 7 -18 13 -23 13 -5 0 -9 -131 -9 -324z"/>
<path d="M3618 2306 c-10 -7 -18 -18 -18 -23 0 -12 64 -27 99 -24 31 4 141
-21 141 -31 0 -4 18 -8 40 -8 22 0 40 5 40 10 0 6 7 10 15 10 9 0 15 -9 15
-24 0 -22 5 -25 58 -31 31 -3 82 -12 112 -20 81 -21 200 -30 200 -16 0 10 -8
12 -65 16 -20 1 -86 32 -95 44 -11 15 -128 35 -200 36 -41 0 -81 5 -88 10 -7
6 -18 15 -25 21 -49 42 -189 61 -229 30z"/>
<path d="M1242 2032 c-7 -2 -12 -26 -12 -58 l0 -54 65 0 65 0 0 40 0 40 60 0
c59 0 82 15 38 24 -31 7 -202 13 -216 8z"/>
<path d="M13460 1833 c-8 -4 -23 -16 -32 -27 -30 -35 -34 -40 -74 -73 -22 -17
-48 -40 -59 -50 -11 -10 -36 -31 -56 -46 l-37 -28 14 -72 c8 -39 14 -84 14
-98 0 -36 34 -76 71 -84 26 -6 40 -1 78 26 30 21 61 34 91 37 68 6 103 30 119
82 18 62 35 100 43 100 25 0 31 147 7 176 -15 19 -117 64 -142 63 -12 0 -29
-3 -37 -6z"/>
<path d="M4880 1775 c0 -9 -9 -15 -22 -15 -22 -1 -22 -1 -4 -12 15 -8 21 -8
24 0 5 17 23 15 36 -4 16 -22 125 -43 221 -44 56 0 87 -5 103 -15 12 -9 27
-15 34 -14 24 5 88 -34 88 -53 0 -16 9 -18 80 -18 72 0 80 2 80 19 0 11 6 21
12 23 10 4 9 8 -2 20 -9 9 -42 17 -84 20 -37 3 -73 11 -79 17 -6 6 -33 11 -60
11 -26 0 -58 5 -70 12 -35 19 -226 39 -250 27 -14 -8 -21 -8 -26 0 -4 5 -23
17 -44 26 -33 14 -37 14 -37 0z"/>
<path d="M0 1225 l0 -414 113 -1 c61 0 128 -1 147 -2 19 0 51 0 70 0 77 4 157
-11 218 -39 34 -16 62 -33 62 -39 0 -5 7 -10 15 -10 8 0 15 -8 15 -18 0 -13
14 -21 53 -30 29 -6 64 -12 79 -12 14 0 28 -6 31 -12 3 -9 9 -7 19 6 14 18 16
18 39 3 13 -10 38 -17 56 -17 17 0 35 -5 38 -11 4 -6 26 -9 49 -8 22 1 55 -4
71 -11 17 -7 44 -18 60 -25 63 -26 143 -44 219 -49 44 -4 82 -10 85 -14 7 -10
184 -33 307 -39 87 -4 94 -6 132 -39 37 -31 46 -34 109 -35 37 -1 79 -7 93
-14 46 -25 92 -35 159 -36 68 0 174 -18 187 -32 4 -4 17 -7 30 -7 12 0 24 -6
27 -14 3 -8 28 -17 57 -21 44 -6 51 -10 47 -26 -4 -14 0 -19 15 -19 11 0 37
-4 57 -9 20 -5 63 -15 96 -22 33 -7 79 -21 101 -31 l42 -19 -11 -37 c-6 -20
-16 -41 -22 -45 -5 -5 5 -5 24 -2 18 4 41 15 51 25 12 12 42 20 99 25 90 8
106 2 116 -44 4 -18 21 -38 46 -55 48 -31 54 -32 71 -8 8 12 30 21 59 24 26 3
61 12 78 21 30 15 31 15 31 -5 0 -12 -7 -30 -17 -40 -14 -16 -14 -18 0 -18 8
0 17 6 20 13 4 9 7 9 18 0 10 -10 191 -13 836 -13 l823 0 0 24 c0 23 4 25 87
31 52 5 124 3 179 -4 138 -17 219 -15 240 6 9 10 12 19 6 21 -5 1 -8 11 -5 21
3 14 -3 20 -29 26 -51 11 -162 24 -281 34 -62 4 -112 13 -116 19 -4 7 -45 19
-92 28 -167 31 -194 38 -217 52 -14 9 -38 13 -66 10 -26 -3 -53 0 -67 8 -13 7
-45 13 -71 14 -36 0 -48 4 -48 15 0 12 -16 15 -80 15 l-80 0 0 40 c0 30 4 40
16 40 8 0 12 4 9 10 -3 5 -41 10 -84 10 -72 0 -183 21 -254 49 -16 6 -60 11
-98 11 -38 0 -69 4 -69 9 0 5 -26 11 -57 14 -32 3 -68 8 -80 12 -19 6 -23 4
-23 -13 0 -20 -1 -20 -42 3 -25 14 -59 25 -80 25 -27 0 -38 4 -38 15 0 8 5 15
11 15 5 0 7 5 3 11 -5 8 -9 8 -14 -1 -6 -9 -18 -2 -44 24 -20 20 -33 37 -29
38 4 1 -23 5 -62 9 -165 20 -185 21 -185 10 0 -6 -7 -11 -15 -11 -11 0 -15
-11 -15 -40 l0 -40 66 0 c58 0 65 -2 54 -15 -16 -19 -80 -19 -106 0 -10 8 -29
15 -41 15 -13 0 -23 6 -23 14 0 17 -98 28 -180 19 -58 -6 -94 3 -162 38 -25
13 -176 11 -180 -2 -4 -13 -198 -22 -198 -9 0 5 -13 23 -30 41 -26 29 -34 32
-80 30 -39 -2 -50 1 -50 14 0 11 -11 15 -40 15 l-40 0 0 -40 c0 -34 3 -40 23
-41 20 -1 20 -2 2 -6 -11 -3 -22 -8 -25 -12 -8 -11 -92 -29 -107 -24 -9 3 -11
13 -7 26 6 18 3 20 -37 14 -24 -3 -36 -3 -26 0 34 9 19 33 -22 33 -33 0 -40 4
-43 23 -2 18 -10 23 -40 25 -21 2 -38 7 -38 12 0 4 -35 11 -77 15 -52 5 -92
15 -120 30 -24 13 -43 19 -43 14 0 -5 -11 -9 -25 -9 -14 0 -25 4 -25 8 0 5
-27 10 -61 11 -55 2 -129 25 -129 41 0 4 15 14 33 23 l32 16 -32 0 c-19 1 -33
-4 -33 -11 0 -9 -3 -9 -12 0 -7 7 -24 12 -39 12 -18 0 -28 6 -32 19 -4 16 -18
20 -81 26 -76 7 -78 8 -102 46 -26 41 -27 42 -90 39 -26 -1 -45 4 -53 14 -8 9
-26 16 -42 16 -19 0 -29 5 -29 15 0 11 -11 15 -40 15 -29 0 -40 -4 -40 -15 0
-12 -15 -15 -75 -15 -74 0 -76 1 -113 37 -30 31 -34 38 -19 41 25 5 25 149 0
167 -9 7 -14 19 -10 28 7 19 71 15 170 -9 32 -8 77 -15 100 -15 23 0 101 -3
172 -5 72 -3 150 -4 175 -2 l45 3 -25 23 c-19 18 -35 22 -75 21 -50 -2 -77 3
-127 24 -23 10 -28 18 -28 44 0 56 -37 76 -181 98 -21 3 -51 12 -68 21 -24 12
-48 13 -128 7 l-98 -8 23 -20 c12 -11 22 -28 22 -38 0 -17 7 -18 93 -12 73 5
88 4 73 -6 -13 -8 -54 -10 -130 -7 -61 3 -129 1 -150 -4 -28 -6 -41 -5 -47 3
-6 10 -16 10 -43 2 -20 -6 -36 -7 -36 -2 0 12 -77 12 -82 0 -1 -5 -16 2 -32
16 -29 24 -29 26 -11 39 10 8 43 14 72 14 29 0 53 5 53 10 0 6 18 10 40 10 22
0 40 -4 40 -10 0 -5 18 -10 40 -10 22 0 40 5 40 10 0 6 -9 10 -19 10 -14 0
-18 5 -14 20 6 23 -6 26 -136 35 -64 4 -107 12 -135 26 -43 21 -166 39 -273
39 l-63 0 0 -415z"/>
<path d="M6212 1472 c-16 -2 -22 -8 -18 -18 3 -8 0 -14 -6 -14 -27 0 20 -27
72 -43 87 -25 220 -22 220 6 0 15 -32 36 -57 37 -13 0 -23 5 -23 10 0 6 -33
10 -79 10 -44 0 -81 3 -83 8 -1 4 -13 6 -26 4z"/>
<path d="M7440 1451 c0 -6 -17 -12 -37 -14 -21 -2 -10 -3 25 0 l62 4 0 -40 c0
-33 -4 -40 -22 -43 -20 -3 -17 -7 19 -26 43 -22 113 -30 113 -12 0 6 18 10 40
10 29 0 40 4 40 15 0 11 11 15 40 15 29 0 40 -4 40 -15 0 -12 20 -15 120 -15
100 0 120 3 120 15 0 11 -11 15 -40 15 -36 0 -40 3 -40 25 0 25 -1 25 -80 25
-47 0 -80 -4 -80 -10 0 -5 -18 -10 -40 -10 -27 0 -40 -4 -40 -14 0 -10 -21
-16 -76 -21 -41 -4 -78 -4 -81 -1 -4 3 12 6 35 6 l42 0 0 40 0 40 -40 0 c-22
0 -40 5 -40 10 0 6 -18 10 -40 10 -22 0 -40 -4 -40 -9z"/>
<path d="M5280 1169 c1 -25 47 -49 117 -59 37 -5 84 -15 103 -21 19 -6 84 -14
145 -19 65 -4 111 -12 113 -19 5 -15 135 -14 150 1 9 9 12 9 12 0 0 -7 16 -12
43 -12 33 1 38 3 24 11 -23 14 -119 39 -187 49 -69 11 -169 33 -240 55 -76 23
-280 33 -280 14z"/>
</g>
</svg>
