<?xml version="1.0" standalone="no"?>
<!DOCTYPE svg PUBLIC "-//W3C//DTD SVG 20010904//EN"
 "http://www.w3.org/TR/2001/REC-SVG-20010904/DTD/svg10.dtd">
<svg version="1.0" xmlns="http://www.w3.org/2000/svg"
 width="512.000000pt" height="512.000000pt" viewBox="0 0 512.000000 512.000000"
 preserveAspectRatio="xMidYMid meet">

<g transform="translate(0.000000,512.000000) scale(0.100000,-0.100000)"
fill="#000000" stroke="none">
<path d="M4685 5040 c-48 -9 -50 -8 100 -20 66 -6 132 -13 148 -16 21 -5 27
-3 27 10 0 9 -6 18 -12 20 -27 9 -225 13 -263 6z"/>
<path d="M1938 4288 c-2 -414 0 -758 4 -763 4 -6 5 -28 2 -50 -7 -65 -10 -525
-4 -535 6 -9 253 1 352 15 33 5 315 5 438 1 42 -1 45 1 44 24 -1 14 -10 54
-19 90 -20 79 -24 340 -5 410 6 25 18 70 25 100 13 57 27 92 79 198 45 93 58
115 73 130 7 7 13 17 13 22 0 22 166 214 262 303 117 109 163 145 323 245 147
93 360 201 455 232 14 5 50 18 80 30 30 12 98 36 150 52 93 30 138 57 127 76
-4 5 -32 12 -64 16 -109 12 -368 37 -473 46 -195 15 -279 41 -295 90 -6 20
-19 20 -785 20 l-779 0 -3 -752z"/>
<path d="M4926 4754 c-6 -15 -22 -38 -126 -173 -25 -32 -52 -69 -60 -81 -8
-13 -34 -47 -57 -76 -24 -29 -43 -55 -43 -59 0 -6 -45 -66 -132 -174 -25 -32
-62 -65 -81 -74 -44 -21 -109 -22 -150 -1 -90 46 -90 81 -2 195 82 106 87 112
138 181 23 32 57 78 76 103 27 37 31 48 21 60 -22 27 -41 22 -300 -75 -47 -17
-97 -35 -111 -40 -119 -37 -456 -233 -564 -328 -89 -77 -201 -190 -246 -247
-27 -33 -54 -67 -61 -75 -26 -31 -105 -156 -112 -177 -4 -11 -13 -27 -21 -33
-8 -7 -15 -21 -15 -32 0 -10 -10 -38 -22 -61 -19 -37 -22 -59 -22 -172 -1
-127 0 -131 30 -190 30 -57 120 -152 190 -200 105 -73 272 -173 381 -230 70
-37 138 -78 151 -91 13 -14 64 -45 115 -70 50 -26 142 -80 205 -121 269 -177
549 -493 613 -693 7 -19 15 -40 20 -45 12 -15 38 -136 51 -237 12 -90 7 -152
-25 -302 -18 -84 -57 -178 -127 -305 -30 -54 -148 -197 -221 -267 -270 -259
-633 -447 -1112 -574 -33 -9 -44 -16 -35 -21 15 -10 1648 -12 1672 -3 15 6 16
222 16 2355 0 2001 -2 2349 -14 2349 -8 0 -17 -7 -20 -16z"/>
</g>
</svg>
